# ProBuilder 5.0.3
# https://unity3d.com/unity/features/worldbuilding/probuilder
# 6/2/2021 12:50:31 PM

mtllib ./CannonTwin.mtl
o CannonTwin

g default
v 1.48749 0.9999996 7.99999
v 0.99999 0.9999998 3.37846
v 1.34471 1.34471 7.99999
v 1.34471 0.6552896 7.99999
v 0.99999 0.5125096 7.99999
v 0.65528 0.6552896 7.99999
v 0.5125 0.9999996 7.99999
v -1.48749 0.9999996 7.99999
v -0.99999 0.9999998 3.37846
v -1.34471 0.6552896 7.99999
v -0.99999 0.5125096 7.99999
v -0.65528 0.6552896 7.99999
v -0.51249 0.9999996 7.99999
v -0.65528 1.34471 7.99999
v -1.34471 1.34471 7.99999
v -0.99999 1.48749 7.99999
v 0.99999 1.48749 7.99999
v 0.65528 1.34471 7.99999
v -0.34999 0.9999996 7.99999
v -0.54038 1.45961 7.99999
v -0.99999 1.64999 7.99999
v -0.34999 0.9999997 6.49999
v -0.54038 0.5403897 7.99999
v -0.54038 0.5403898 6.49999
v -0.99999 0.3500096 7.99999
v -0.99999 0.3500097 6.49999
v -0.54038 1.45961 6.49999
v -0.99999 1.64999 6.49999
v 1.64999 0.9999996 7.99999
v 1.45961 1.45961 7.99999
v 0.99999 1.64999 7.99999
v 1.64999 0.9999997 6.49999
v 1.45961 0.5403897 7.99999
v 1.45961 0.5403898 6.49999
v 0.99999 0.3500096 7.99999
v 0.99999 0.3500097 6.49999
v 0.35 0.9999997 6.49999
v 0.35 0.9999996 7.99999
v 0.54038 0.5403898 6.49999
v 0.54038 0.5403897 7.99999
v 0.54038 1.45961 7.99999
v 0.54038 1.45961 6.49999
v 0.99999 1.64999 6.49999
v 0.5125 0.9999997 6.49999
v 0.65528 0.6552897 6.49999
v 0.99999 0.5125097 6.49999
v 0.65528 1.34471 6.49999
v 0.99999 1.48749 6.49999
v 1.34471 0.6552897 6.49999
v 1.48749 0.9999997 6.49999
v 1.45961 1.45961 6.49999
v 1.34471 1.34471 6.49999
v -1.64999 0.9999997 6.49999
v -1.64999 0.9999996 7.99999
v -1.45961 0.5403898 6.49999
v -1.45961 0.5403897 7.99999
v -1.45961 1.45961 7.99999
v -1.45961 1.45961 6.49999
v -1.48749 0.9999997 6.49999
v -1.34471 0.6552897 6.49999
v -0.99999 0.5125097 6.49999
v -1.34471 1.34471 6.49999
v -0.99999 1.48749 6.49999
v -0.65528 0.6552897 6.49999
v -0.51249 0.9999997 6.49999
v -0.65528 1.34471 6.49999
v -2.49999 0.3999899 2.99999
v -2.2903 -1.2E-07 2.74006
v -2.49999 0.3999901 -2.99999
v -2.2903 1.2E-07 -2.74006
v -1.59999 0.3999901 -2.99999
v -1.99999 2.49999 -2.75154
v -1.59999 2.49999 -2.75154
v -1.99999 2.49999 1.49999
v -1.59999 0.3999899 2.99999
v -1.59999 2.49999 1.49999
v -1.59999 1.59999 2.14288
v 1.59999 1.59999 2.14288
v 1.59999 2.49999 1.49999
v 1.59999 2.49999 -2.75154
v 2.49999 0.3999901 -2.99999
v 2.2903 1.2E-07 -2.74006
v 2.49999 0.3999899 2.99999
v 2.2903 -1.2E-07 2.74006
v 1.99999 2.49999 -2.75154
v 1.99999 2.49999 1.49999
v 1.59999 0.3999899 2.99999
v 1.59999 0.3999901 -2.99999
v 0.39999 0.3999899 2.99999
v 0.39999 0.7113199 2.77761
v 0.69999 0.3999899 2.99999
v 0.39999 1.30377 2.35441
v 0.39999 1.59999 2.14288
v 0.69999 1.59999 2.14288
v 1.59999 0.7113199 2.77761
v 1.29999 0.3999899 2.99999
v 1.29999 1.59999 2.14288
v 1.59999 1.30377 2.35441
v -1.59999 0.7113199 2.77761
v -1.29999 0.3999899 2.99999
v -1.59999 1.30377 2.35441
v -1.29999 1.59999 2.14288
v -0.39999 0.7113199 2.77761
v -0.39999 0.3999899 2.99999
v -0.69999 0.3999899 2.99999
v -0.69999 1.59999 2.14288
v -0.39999 1.59999 2.14288
v -0.39999 1.30377 2.35441
v -1.48749 0.9999999 1.49999
v -1.34471 0.6552899 1.49999
v -0.99999 0.5125099 1.49999
v -1.34471 1.34471 1.49999
v -0.99999 1.48749 1.49999
v -0.65528 0.6552899 1.49999
v -0.51249 0.9999999 1.49999
v -0.65528 1.34471 1.49999
v 0.5125 0.9999999 1.49999
v 0.65528 1.34471 1.49999
v 0.99999 1.48749 1.49999
v 0.65528 0.6552899 1.49999
v 0.99999 0.5125099 1.49999
v 1.34471 0.6552899 1.49999
v 1.48749 0.9999999 1.49999
v 1.34471 1.34471 1.49999
v 1.9871 0.3999899 2.99999
v 1.9871 0.3999899 1.49999
v 1.9871 1.69999 2.05562
v 1.9871 1.69999 1.49999
v -1.9871 1.69999 2.05562
v -1.9871 1.69999 1.49999
v -1.9871 0.3999899 2.99999
v -1.9871 0.3999899 1.49999

vt 0.0032 2.1273
vt 3.4481 2.5016
vt 0.0032 2.0025
vt 0.0032 2.252
vt 0.0032 2.3768
vt 0.0032 2.5016
vt 0.0032 3.0006
vt 0.0032 2.8758
vt 0.0032 2.7511
vt 0.0032 2.6263
vt -0.0042 1
vt -0.0042 1.0974
vt -0.2499 1
vt -0.2499 1.0974
vt -0.4965 1
vt -0.4965 1.0974
vt -0.0042 0.00010002
vt -0.2499 0.00010002
vt -0.4965 0.00010002
vt -0.25 0.00010002
vt -0.0042 -0.09800005
vt -0.25 -0.09800005
vt -0.4965 -0.09800005
vt -0.2499 -0.09800005
vt 0.8855 6.2609
vt 1.1119 6.1735
vt 0.8855 4.2363
vt 1.1119 4.3237
vt -0.114 1.6323
vt 0.1135 1.6323
vt 0 2.4318
vt 0.1135 2.4318
vt -0.114 0.5221
vt 0 1.2492
vt 0.1135 0.5221
vt 0.1135 1.2492
vt 0.1135 1.7238
vt 0.1135 2.0037
vt 0.886 1.7238
vt 0.886 2.0037
vt -0.8854 1.9964
vt -0.1143 1.9964
vt -0.8854 1.0043
vt -0.1143 1.0043
vt 0.8863 2.3283
vt 1.1127 2.3906
vt 0.8863 3.9218
vt 1.1127 3.8595
vt 0.527 1.3594
vt 0.527 1.1094
vt 0.4374 1.3594
vt 0.527 0.7735
vt 0.527 0.6485
vt 0.4374 0.6485
vt 0.2061 1.1094
vt 0.2061 1.3594
vt 0.3046 1.3594
vt 0.3046 0.6485
vt 0.2061 0.6485
vt 0.2061 0.7735
vt 0.1991 0.7528
vt 0.1991 1.999
vt 0.1093 0.7528
vt 0.1093 1.999
vt 0.0041 0.7528
vt 0.0041 1.999
vt -1.9999 4
vt -1.9999 4.9999
vt 2.1343 4
vt 1.0162 4.9999
vt -0.9999 -0.9999001
vt 0.9999 -0.9999001
vt -0.9999 0.00010002
vt 0.9999 0.00010002
vt 0.9999 4
vt 1.9999 4
vt 0.9999 4.9999
vt 1.9999 4.9999
vt 0 5.9999
vt 1.1249 5.9999
vt 0 5.7499
vt 1.1249 5.7499
vt 0 4
vt 0 4.9999
vt -0.9999 4
vt -0.9999 4.9999
vt 0 5.2499
vt 1.1249 5.2499

vn -0.9195266 -0.380871 0.09699581
vn -0.9195266 0.380871 0.09699585
vn -0.3808615 0.9195307 0.09699432
vn 0.3808708 0.9195269 0.09699391
vn 0.9195268 0.3808709 0.09699389
vn 0.9195266 -0.380871 0.09699581
vn 0.3808612 -0.9195307 0.09699424
vn -0.3808706 -0.9195269 0.09699383
vn 0 0 1
vn 0.9238701 -0.3827063 -2.281107E-08
vn 0.3826892 -0.9238772 -6.424527E-08
vn 0.92387 0.3827063 1.520738E-08
vn 0.3826891 0.9238772 0
vn -0.9238772 -0.3826892 -1.52067E-08
vn -0.3826892 -0.9238772 -7.342317E-08
vn -0.9238772 0.3826892 7.60335E-09
vn -0.3826891 0.9238772 0
vn 0 0 -1
vn -0.8856754 -0.464305 -1.614365E-08
vn 0 0.1174902 -0.9930741
vn 0 0.5812382 0.8137335
vn 0 1 5.60783E-08
vn 0 -0.544895 -0.8385043
vn 0 -0.544895 0.8385043
vn 0.8856754 -0.464305 -1.614365E-08
vn -0.9728062 0.2316204 8.053324E-09
vn 0.9728062 0.2316204 8.053324E-09
vn -1 0 0
vn 0 -1 -2.14548E-07
vn 1 0 0

usemtl pole
f 3/3/1 2/2/1 1/1/1
f 1/1/2 2/2/2 4/4/2
f 4/4/3 2/2/3 5/5/3
f 5/5/4 2/2/4 6/6/4
f 6/6/5 2/2/5 7/7/5
f 10/6/5 9/2/5 8/7/5
f 11/5/4 9/2/4 10/6/4
f 12/4/3 9/2/3 11/5/3
f 13/1/2 9/2/2 12/4/2
f 14/3/1 9/2/1 13/1/1
f 8/7/6 9/2/6 15/8/6
f 15/8/7 9/2/7 16/9/7
f 16/9/8 9/2/8 14/10/8
f 17/9/8 2/2/8 3/10/8
f 18/8/7 2/2/7 17/9/7
f 7/7/6 2/2/6 18/8/6

usemtl cannonswitch
f 20/13/9 14/14/9 13/12/9 19/11/9
f 21/15/9 16/16/9 14/14/9 20/13/9
f 24/18/10 22/17/10 19/11/10 23/13/10
f 26/19/11 24/18/11 23/13/11 25/15/11
f 27/20/12 20/13/12 19/11/12 22/17/12
f 28/19/13 21/15/13 20/13/13 27/20/13
f 30/13/9 3/14/9 1/12/9 29/11/9
f 31/15/9 17/16/9 3/14/9 30/13/9
f 34/20/10 32/17/10 29/11/10 33/13/10
f 36/19/11 34/20/11 33/13/11 35/15/11
f 39/18/14 40/13/14 38/11/14 37/17/14
f 36/19/15 35/15/15 40/13/15 39/18/15
f 42/20/16 37/17/16 38/11/16 41/13/16
f 43/19/17 42/20/17 41/13/17 31/15/17
f 44/21/18 45/22/18 39/18/18 37/17/18
f 45/22/18 46/23/18 36/19/18 39/18/18
f 40/13/9 6/14/9 7/12/9 38/11/9
f 35/15/9 5/16/9 6/14/9 40/13/9
f 42/20/18 47/22/18 44/21/18 37/17/18
f 43/19/18 48/23/18 47/22/18 42/20/18
f 41/13/9 38/11/9 7/12/9 18/14/9
f 31/15/9 41/13/9 18/14/9 17/16/9
f 49/22/18 34/20/18 36/19/18 46/23/18
f 50/21/18 32/17/18 34/20/18 49/22/18
f 51/20/12 30/13/12 29/11/12 32/17/12
f 43/19/13 31/15/13 30/13/13 51/20/13
f 33/13/9 4/14/9 5/16/9 35/15/9
f 29/11/9 1/12/9 4/14/9 33/13/9
f 51/20/18 52/22/18 48/23/18 43/19/18
f 32/17/18 50/21/18 52/22/18 51/20/18
f 55/18/14 56/13/14 54/11/14 53/17/14
f 26/19/15 25/15/15 56/13/15 55/18/15
f 58/18/16 53/17/16 54/11/16 57/13/16
f 28/19/17 58/18/17 57/13/17 21/15/17
f 59/21/18 60/24/18 55/18/18 53/17/18
f 60/24/18 61/23/18 26/19/18 55/18/18
f 56/13/9 10/14/9 8/12/9 54/11/9
f 25/15/9 11/16/9 10/14/9 56/13/9
f 58/18/18 62/24/18 59/21/18 53/17/18
f 28/19/18 63/23/18 62/24/18 58/18/18
f 57/13/9 54/11/9 8/12/9 15/14/9
f 21/15/9 57/13/9 15/14/9 16/16/9
f 64/24/18 24/18/18 26/19/18 61/23/18
f 65/21/18 22/17/18 24/18/18 64/24/18
f 23/13/9 12/14/9 11/16/9 25/15/9
f 19/11/9 13/12/9 12/14/9 23/13/9
f 27/20/18 66/24/18 63/23/18 28/19/18
f 22/17/18 65/21/18 66/24/18 27/20/18

usemtl cannonorange_2
f 69/27/19 70/28/19 68/26/19 67/25/19
f 72/31/20 73/32/20 71/30/20 69/29/20
f 75/35/21 76/36/21 74/34/21 67/33/21
f 76/36/22 73/32/22 72/31/22 74/34/22
f 78/39/21 79/40/21 76/38/21 77/37/21
f 76/43/22 79/44/22 80/42/22 73/41/22
f 81/47/23 82/48/23 70/46/23 69/45/23
f 67/45/24 68/46/24 84/48/24 83/47/24
f 79/36/22 86/34/22 85/31/22 80/32/22
f 83/33/21 86/34/21 79/36/21 87/35/21
f 88/30/20 80/32/20 85/31/20 81/29/20
f 84/26/25 82/28/25 81/27/25 83/25/25

usemtl cannonbarrel_2
f 91/51/21 90/50/21 89/49/21
f 94/54/21 93/53/21 92/52/21
f 96/57/21 87/56/21 95/55/21
f 98/60/21 78/59/21 97/58/21
f 100/51/21 99/50/21 75/49/21
f 102/54/21 77/53/21 101/52/21
f 105/57/21 104/56/21 103/55/21
f 108/60/21 107/59/21 106/58/21
f 103/55/21 104/56/21 89/49/21
f 89/49/21 90/50/21 103/55/21
f 108/60/21 103/55/21 90/50/21
f 90/50/21 92/52/21 108/60/21
f 107/59/21 108/60/21 92/52/21
f 92/52/21 93/53/21 107/59/21
f 60/64/14 59/62/14 109/61/14
f 109/61/14 110/63/14 60/64/14
f 61/66/15 60/64/15 110/63/15
f 110/63/15 111/65/15 61/66/15
f 109/61/16 59/62/16 62/64/16
f 62/64/16 112/63/16 109/61/16
f 112/63/17 62/64/17 63/66/17
f 63/66/17 113/65/17 112/63/17
f 64/64/11 61/66/11 111/65/11
f 111/65/11 114/63/11 64/64/11
f 65/62/10 64/64/10 114/63/10
f 114/63/10 115/61/10 65/62/10
f 113/65/13 63/66/13 66/64/13
f 66/64/13 116/63/13 113/65/13
f 116/63/12 66/64/12 65/62/12
f 65/62/12 115/61/12 116/63/12
f 117/61/16 44/62/16 47/64/16
f 47/64/16 118/63/16 117/61/16
f 118/63/17 47/64/17 48/66/17
f 48/66/17 119/65/17 118/63/17
f 45/64/14 44/62/14 117/61/14
f 117/61/14 120/63/14 45/64/14
f 46/66/15 45/64/15 120/63/15
f 120/63/15 121/65/15 46/66/15
f 49/64/11 46/66/11 121/65/11
f 121/65/11 122/63/11 49/64/11
f 50/62/10 49/64/10 122/63/10
f 122/63/10 123/61/10 50/62/10
f 119/65/13 48/66/13 52/64/13
f 52/64/13 124/63/13 119/65/13
f 124/63/12 52/64/12 50/62/12
f 50/62/12 123/61/12 124/63/12

usemtl cannonmetal_2
f 67/69/26 74/70/26 72/68/26 69/67/26
f 73/73/20 80/74/20 88/72/20 71/71/20
f 85/68/27 86/70/27 83/69/27 81/67/27
f 127/77/28 128/78/28 126/76/28 125/75/28
f 130/81/29 128/82/29 127/80/29 129/79/29
f 132/85/30 130/86/30 129/84/30 131/83/30
f 131/79/22 125/80/22 126/88/22 132/87/22
f 132/87/9 126/88/9 128/82/9 130/81/9

