{
  "accessors": [
    {
      "bufferView": 2,
      "componentType": 5126,
      "count": 4696,
      "max": [
        0.99999994039535522,
        0.61240845918655396,
        2.9582962989807129
      ],
      "min": [
        -1.0000001192092896,
        -1.0000002384185791,
        -3.8699650764465332
      ],
      "type": "VEC3"
    },
    {
      "bufferView": 2,
      "byteOffset": 56352,
      "componentType": 5126,
      "count": 4696,
      "max": [
        1,
        1,
        1
      ],
      "min": [
        -1,
        -1,
        -1
      ],
      "type": "VEC3"
    },
    {
      "bufferView": 1,
      "componentType": 5126,
      "count": 4696,
      "max": [
        0.875,
        1
      ],
      "min": [
        0.125,
        0
      ],
      "type": "VEC2"
    },
    {
      "bufferView": 0,
      "componentType": 5125,
      "count": 8850,
      "max": [
        4695
      ],
      "min": [
        0
      ],
      "type": "SCALAR"
    },
    {
      "bufferView": 2,
      "byteOffset": 112704,
      "componentType": 5126,
      "count": 312,
      "max": [
        0.90769660472869873,
        0.51752376556396484,
        0.97775256633758545
      ],
      "min": [
        -0.75804120302200317,
        -0.41172263026237488,
        -3.7631540298461914
      ],
      "type": "VEC3"
    },
    {
      "bufferView": 2,
      "byteOffset": 116448,
      "componentType": 5126,
      "count": 312,
      "max": [
        1,
        1,
        0.97572678327560425
      ],
      "min": [
        -1,
        -1,
        -0.97572594881057739
      ],
      "type": "VEC3"
    },
    {
      "bufferView": 1,
      "byteOffset": 37568,
      "componentType": 5126,
      "count": 312,
      "max": [
        0.84375011920928955,
        0.70031684637069702
      ],
      "min": [
        0.54521167278289795,
        0.34443750977516174
      ],
      "type": "VEC2"
    },
    {
      "bufferView": 0,
      "byteOffset": 35400,
      "componentType": 5125,
      "count": 474,
      "max": [
        311
      ],
      "min": [
        0
      ],
      "type": "SCALAR"
    },
    {
      "bufferView": 2,
      "byteOffset": 120192,
      "componentType": 5126,
      "count": 308,
      "max": [
        6.9393305778503418,
        8.549407958984375,
        7.0576248168945312
      ],
      "min": [
        -7.4619789123535156,
        -25.951967239379883,
        -6.9139986038208008
      ],
      "type": "VEC3"
    },
    {
      "bufferView": 2,
      "byteOffset": 123888,
      "componentType": 5126,
      "count": 308,
      "max": [
        1,
        1,
        1
      ],
      "min": [
        -1,
        -1,
        -1
      ],
      "type": "VEC3"
    },
    {
      "bufferView": 1,
      "byteOffset": 40064,
      "componentType": 5126,
      "count": 308,
      "max": [
        0.875,
        1
      ],
      "min": [
        0.125,
        0
      ],
      "type": "VEC2"
    },
    {
      "bufferView": 0,
      "byteOffset": 37296,
      "componentType": 5125,
      "count": 492,
      "max": [
        307
      ],
      "min": [
        0
      ],
      "type": "SCALAR"
    },
    {
      "bufferView": 2,
      "byteOffset": 127584,
      "componentType": 5126,
      "count": 620,
      "max": [
        2.1347839832305908,
        1.0017077922821045,
        5.9972090721130371
      ],
      "min": [
        -2.1347839832305908,
        -0.70728570222854614,
        -1
      ],
      "type": "VEC3"
    },
    {
      "bufferView": 2,
      "byteOffset": 135024,
      "componentType": 5126,
      "count": 620,
      "max": [
        1,
        1,
        1
      ],
      "min": [
        -1,
        -1,
        -1
      ],
      "type": "VEC3"
    },
    {
      "bufferView": 1,
      "byteOffset": 42528,
      "componentType": 5126,
      "count": 620,
      "max": [
        0.875,
        1
      ],
      "min": [
        0.125,
        0
      ],
      "type": "VEC2"
    },
    {
      "bufferView": 0,
      "byteOffset": 39264,
      "componentType": 5125,
      "count": 1008,
      "max": [
        619
      ],
      "min": [
        0
      ],
      "type": "SCALAR"
    },
    {
      "bufferView": 2,
      "byteOffset": 142464,
      "componentType": 5126,
      "count": 960,
      "max": [
        1,
        1.4573208093643188,
        1
      ],
      "min": [
        -1,
        -1.3648701906204224,
        -1
      ],
      "type": "VEC3"
    },
    {
      "bufferView": 2,
      "byteOffset": 153984,
      "componentType": 5126,
      "count": 960,
      "max": [
        0.99518483877182007,
        1,
        0.99518483877182007
      ],
      "min": [
        -0.99518489837646484,
        -1,
        -0.99518477916717529
      ],
      "type": "VEC3"
    },
    {
      "bufferView": 1,
      "byteOffset": 47488,
      "componentType": 5126,
      "count": 960,
      "max": [
        1,
        1
      ],
      "min": [
        0,
        0.01000000536441803
      ],
      "type": "VEC2"
    },
    {
      "bufferView": 0,
      "byteOffset": 43296,
      "componentType": 5125,
      "count": 1524,
      "max": [
        959
      ],
      "min": [
        0
      ],
      "type": "SCALAR"
    },
    {
      "bufferView": 2,
      "byteOffset": 165504,
      "componentType": 5126,
      "count": 960,
      "max": [
        1,
        1.4573208093643188,
        1
      ],
      "min": [
        -1,
        -1.3648701906204224,
        -1
      ],
      "type": "VEC3"
    },
    {
      "bufferView": 2,
      "byteOffset": 177024,
      "componentType": 5126,
      "count": 960,
      "max": [
        0.99518483877182007,
        1,
        0.99518483877182007
      ],
      "min": [
        -0.99518489837646484,
        -1,
        -0.99518477916717529
      ],
      "type": "VEC3"
    },
    {
      "bufferView": 1,
      "byteOffset": 55168,
      "componentType": 5126,
      "count": 960,
      "max": [
        1,
        1
      ],
      "min": [
        0,
        0.01000000536441803
      ],
      "type": "VEC2"
    },
    {
      "bufferView": 0,
      "byteOffset": 49392,
      "componentType": 5125,
      "count": 1524,
      "max": [
        959
      ],
      "min": [
        0
      ],
      "type": "SCALAR"
    },
    {
      "bufferView": 2,
      "byteOffset": 188544,
      "componentType": 5126,
      "count": 3776,
      "max": [
        0.99359697103500366,
        0.99403953552246094,
        0.9935951828956604
      ],
      "min": [
        -0.9935951828956604,
        -35.521255493164062,
        -1.2836003303527832
      ],
      "type": "VEC3"
    },
    {
      "bufferView": 2,
      "byteOffset": 233856,
      "componentType": 5126,
      "count": 3776,
      "max": [
        0.99879360198974609,
        0.99639749526977539,
        0.99879366159439087
      ],
      "min": [
        -0.99975782632827759,
        -1,
        -0.99879348278045654
      ],
      "type": "VEC3"
    },
    {
      "bufferView": 1,
      "byteOffset": 62848,
      "componentType": 5126,
      "count": 3776,
      "max": [
        1.0000001192092896,
        1.0000001192092896
      ],
      "min": [
        0,
        0.010000006295740604
      ],
      "type": "VEC2"
    },
    {
      "bufferView": 0,
      "byteOffset": 55488,
      "componentType": 5125,
      "count": 5664,
      "max": [
        3775
      ],
      "min": [
        0
      ],
      "type": "SCALAR"
    },
    {
      "bufferView": 2,
      "byteOffset": 279168,
      "componentType": 5126,
      "count": 1472,
      "max": [
        1.3402558565139771,
        -23.334390640258789,
        -1.169825553894043
      ],
      "min": [
        -2.6925029754638672,
        -35.911441802978516,
        -19.602533340454102
      ],
      "type": "VEC3"
    },
    {
      "bufferView": 2,
      "byteOffset": 296832,
      "componentType": 5126,
      "count": 1472,
      "max": [
        0.99868923425674438,
        0.45965138077735901,
        0.63243371248245239
      ],
      "min": [
        -0.99868988990783691,
        -0.99374282360076904,
        -0.94697451591491699
      ],
      "type": "VEC3"
    },
    {
      "bufferView": 1,
      "byteOffset": 93056,
      "componentType": 5126,
      "count": 1472,
      "max": [
        1.0000001192092896,
        0.50000011920928955
      ],
      "min": [
        0,
        0.48538842797279358
      ],
      "type": "VEC2"
    },
    {
      "bufferView": 0,
      "byteOffset": 78144,
      "componentType": 5125,
      "count": 2208,
      "max": [
        1471
      ],
      "min": [
        0
      ],
      "type": "SCALAR"
    },
    {
      "bufferView": 2,
      "byteOffset": 314496,
      "componentType": 5126,
      "count": 1920,
      "max": [
        1.2393060922622681,
        0.25,
        1.2393060922622681
      ],
      "min": [
        -1.2393059730529785,
        -0.25,
        -1.2393060922622681
      ],
      "type": "VEC3"
    },
    {
      "bufferView": 2,
      "byteOffset": 337536,
      "componentType": 5126,
      "count": 1920,
      "max": [
        0.9475017786026001,
        0.96578699350357056,
        0.9475017786026001
      ],
      "min": [
        -0.94750183820724487,
        -0.96578699350357056,
        -0.9475017786026001
      ],
      "type": "VEC3"
    },
    {
      "bufferView": 1,
      "byteOffset": 104832,
      "componentType": 5126,
      "count": 1920,
      "max": [
        0.97916668653488159,
        1
      ],
      "min": [
        0.02083333395421505,
        2.2204460492503131e-16
      ],
      "type": "VEC2"
    },
    {
      "bufferView": 0,
      "byteOffset": 86976,
      "componentType": 5125,
      "count": 2880,
      "max": [
        1919
      ],
      "min": [
        0
      ],
      "type": "SCALAR"
    },
    {
      "bufferView": 2,
      "byteOffset": 360576,
      "componentType": 5126,
      "count": 384,
      "max": [
        1.25,
        0.25,
        1.25
      ],
      "min": [
        -1.25,
        -0.25,
        -1.25
      ],
      "type": "VEC3"
    },
    {
      "bufferView": 2,
      "byteOffset": 365184,
      "componentType": 5126,
      "count": 384,
      "max": [
        0.96399599313735962,
        0.96578693389892578,
        0.96399599313735962
      ],
      "min": [
        -0.96399599313735962,
        -0.96578693389892578,
        -0.96399599313735962
      ],
      "type": "VEC3"
    },
    {
      "bufferView": 1,
      "byteOffset": 120192,
      "componentType": 5126,
      "count": 384,
      "max": [
        1,
        1
      ],
      "min": [
        8.8817841970012523e-16,
        2.2204460492503131e-16
      ],
      "type": "VEC2"
    },
    {
      "bufferView": 0,
      "byteOffset": 98496,
      "componentType": 5125,
      "count": 576,
      "max": [
        383
      ],
      "min": [
        0
      ],
      "type": "SCALAR"
    }
  ],
  "asset": {
    "extras": {
      "author": "michael-dg (https://sketchfab.com/michael-dg)",
      "license": "CC-BY-4.0 (http://creativecommons.org/licenses/by/4.0/)",
      "source": "https://sketchfab.com/3d-models/fast-assault-boat-low-poly-02235e2c848e43b788d175be435232cf",
      "title": "Fast Assault Boat (Low Poly)"
    },
    "generator": "Sketchfab-8.62.0",
    "version": "2.0"
  },
  "bufferViews": [
    {
      "buffer": 0,
      "byteLength": 100800,
      "byteOffset": 0,
      "name": "floatBufferViews",
      "target": 34963
    },
    {
      "buffer": 0,
      "byteLength": 123264,
      "byteOffset": 100800,
      "byteStride": 8,
      "name": "floatBufferViews",
      "target": 34962
    },
    {
      "buffer": 0,
      "byteLength": 369792,
      "byteOffset": 224064,
      "byteStride": 12,
      "name": "floatBufferViews",
      "target": 34962
    }
  ],
  "buffers": [
    {
      "byteLength": 593856,
      "uri": "scene.bin"
    }
  ],
  "materials": [
    {
      "doubleSided": true,
      "emissiveFactor": [
        0,
        0,
        0
      ],
      "name": "Material.004",
      "pbrMetallicRoughness": {
        "baseColorFactor": [
          0.10865900000000001,
          0.13858300000000001,
          0.142401,
          1
        ],
        "metallicFactor": 0,
        "roughnessFactor": 0.5
      }
    },
    {
      "doubleSided": true,
      "emissiveFactor": [
        0,
        0,
        0
      ],
      "name": "Material.005",
      "pbrMetallicRoughness": {
        "baseColorFactor": [
          0.0146695,
          0.0146695,
          0.0146695,
          1
        ],
        "metallicFactor": 0,
        "roughnessFactor": 0.5
      }
    },
    {
      "doubleSided": true,
      "emissiveFactor": [
        0,
        0,
        0
      ],
      "name": "Material.003",
      "pbrMetallicRoughness": {
        "baseColorFactor": [
          0.011087700000000001,
          0.011087700000000001,
          0.011087700000000001,
          1
        ],
        "metallicFactor": 0,
        "roughnessFactor": 0.5
      }
    },
    {
      "doubleSided": true,
      "emissiveFactor": [
        0,
        0,
        0
      ],
      "name": "Material.001",
      "pbrMetallicRoughness": {
        "baseColorFactor": [
          0.110689,
          0.110689,
          0.110689,
          1
        ],
        "metallicFactor": 0,
        "roughnessFactor": 0.5
      }
    },
    {
      "doubleSided": true,
      "emissiveFactor": [
        0,
        0,
        0
      ],
      "name": "Material.008",
      "pbrMetallicRoughness": {
        "baseColorFactor": [
          0.214035,
          0.214035,
          0.214035,
          1
        ],
        "metallicFactor": 0,
        "roughnessFactor": 0.5
      }
    },
    {
      "doubleSided": true,
      "emissiveFactor": [
        0,
        0,
        0
      ],
      "name": "Material.009",
      "pbrMetallicRoughness": {
        "baseColorFactor": [
          0.049549200000000002,
          0.049549200000000002,
          0.049549200000000002,
          1
        ],
        "metallicFactor": 0,
        "roughnessFactor": 0.5
      }
    },
    {
      "doubleSided": true,
      "emissiveFactor": [
        0,
        0,
        0
      ],
      "name": "Material.010",
      "pbrMetallicRoughness": {
        "baseColorFactor": [
          0.410939,
          0.016198000000000001,
          0.019948,
          1
        ],
        "metallicFactor": 0,
        "roughnessFactor": 0.5
      }
    },
    {
      "doubleSided": true,
      "emissiveFactor": [
        0,
        0,
        0
      ],
      "name": "Material.006",
      "pbrMetallicRoughness": {
        "baseColorFactor": [
          0.31853900000000002,
          0.00616857,
          0.0081147400000000005,
          1
        ],
        "metallicFactor": 0,
        "roughnessFactor": 0.5
      }
    },
    {
      "doubleSided": true,
      "emissiveFactor": [
        0,
        0,
        0
      ],
      "name": "Material.007",
      "pbrMetallicRoughness": {
        "baseColorFactor": [
          0.61517699999999997,
          0.61517699999999997,
          0.61517699999999997,
          1
        ],
        "metallicFactor": 0,
        "roughnessFactor": 0.5
      }
    }
  ],
  "meshes": [
    {
      "primitives": [
        {
          "attributes": {
            "NORMAL": 1,
            "POSITION": 0,
            "TEXCOORD_0": 2
          },
          "indices": 3,
          "material": 0,
          "mode": 4
        }
      ]
    },
    {
      "primitives": [
        {
          "attributes": {
            "NORMAL": 5,
            "POSITION": 4,
            "TEXCOORD_0": 6
          },
          "indices": 7,
          "material": 1,
          "mode": 4
        }
      ]
    },
    {
      "primitives": [
        {
          "attributes": {
            "NORMAL": 9,
            "POSITION": 8,
            "TEXCOORD_0": 10
          },
          "indices": 11,
          "material": 2,
          "mode": 4
        }
      ]
    },
    {
      "primitives": [
        {
          "attributes": {
            "NORMAL": 13,
            "POSITION": 12,
            "TEXCOORD_0": 14
          },
          "indices": 15,
          "material": 3,
          "mode": 4
        }
      ]
    },
    {
      "primitives": [
        {
          "attributes": {
            "NORMAL": 17,
            "POSITION": 16,
            "TEXCOORD_0": 18
          },
          "indices": 19,
          "material": 4,
          "mode": 4
        }
      ]
    },
    {
      "primitives": [
        {
          "attributes": {
            "NORMAL": 21,
            "POSITION": 20,
            "TEXCOORD_0": 22
          },
          "indices": 23,
          "material": 4,
          "mode": 4
        }
      ]
    },
    {
      "primitives": [
        {
          "attributes": {
            "NORMAL": 25,
            "POSITION": 24,
            "TEXCOORD_0": 26
          },
          "indices": 27,
          "material": 5,
          "mode": 4
        }
      ]
    },
    {
      "primitives": [
        {
          "attributes": {
            "NORMAL": 29,
            "POSITION": 28,
            "TEXCOORD_0": 30
          },
          "indices": 31,
          "material": 6,
          "mode": 4
        }
      ]
    },
    {
      "primitives": [
        {
          "attributes": {
            "NORMAL": 33,
            "POSITION": 32,
            "TEXCOORD_0": 34
          },
          "indices": 35,
          "material": 7,
          "mode": 4
        }
      ]
    },
    {
      "primitives": [
        {
          "attributes": {
            "NORMAL": 37,
            "POSITION": 36,
            "TEXCOORD_0": 38
          },
          "indices": 39,
          "material": 8,
          "mode": 4
        }
      ]
    }
  ],
  "nodes": [
    {
      "children": [
        1
      ],
      "name": "RootNode (gltf orientation matrix)",
      "rotation": [
        -0.70710678118654746,
        -0,
        -0,
        0.70710678118654757
      ]
    },
    {
      "children": [
        2
      ],
      "name": "RootNode (model correction matrix)"
    },
    {
      "children": [
        3
      ],
      "name": "root"
    },
    {
      "children": [
        4
      ],
      "matrix": [
        1,
        0,
        0,
        0,
        0,
        2.2204460492503131e-16,
        1,
        0,
        0,
        -1,
        2.2204460492503131e-16,
        0,
        0,
        0,
        0,
        1
      ],
      "name": "GLTF_SceneRootNode"
    },
    {
      "children": [
        5,
        6,
        7,
        9,
        11,
        13,
        15,
        18
      ],
      "matrix": [
        -1,
        0,
        6.4832315134922408e-14,
        0,
        -0,
        1,
        0,
        0,
        -6.4832315134922408e-14,
        0,
        -1,
        0,
        0,
        1.0262383222579956,
        0,
        1
      ],
      "name": "Boat_6"
    },
    {
      "mesh": 0,
      "name": ""
    },
    {
      "mesh": 1,
      "name": ""
    },
    {
      "children": [
        8
      ],
      "matrix": [
        0.020461438223719597,
        0,
        0,
        0,
        0,
        0.020461438223719597,
        0,
        0,
        0,
        0,
        0.020461438223719597,
        0,
        -0.48578029870986938,
        1.0219870805740356,
        0.32907691597938538,
        1
      ],
      "name": "Cube.001_0"
    },
    {
      "mesh": 2,
      "name": ""
    },
    {
      "children": [
        10
      ],
      "matrix": [
        -0.41796529293060303,
        0,
        -2.7097657586737012e-14,
        0,
        0,
        0.41796529293060303,
        0,
        0,
        2.7097657586737012e-14,
        0,
        -0.41796529293060303,
        0,
        0,
        -0.19827717542648315,
        -0.73913586139678955,
        1
      ],
      "name": "Cube.002_1"
    },
    {
      "mesh": 3,
      "name": ""
    },
    {
      "children": [
        12
      ],
      "matrix": [
        -0.10073656588792779,
        1.3046800564607865e-09,
        -6.4127126529313423e-09,
        0,
        -1.6575633744028311e-09,
        0.11780925297222915,
        0.050007016102892127,
        0,
        7.0957778122270618e-09,
        0.043553498988590747,
        -0.10260570575967344,
        0,
        0.6879584789276123,
        -0.26601067185401917,
        -1.7689996957778931,
        1
      ],
      "name": "Cylinder_2"
    },
    {
      "mesh": 4,
      "name": ""
    },
    {
      "children": [
        14
      ],
      "matrix": [
        -0.10073656588792779,
        1.3046800564607865e-09,
        -6.4127126529313423e-09,
        0,
        -1.6575633744028311e-09,
        0.11780925297222915,
        0.050007016102892127,
        0,
        7.0957778122270618e-09,
        0.043553498988590747,
        -0.10260570575967344,
        0,
        -0.73448461294174194,
        -0.26601019501686096,
        -1.7689996957778931,
        1
      ],
      "name": "Cylinder.001_3"
    },
    {
      "mesh": 5,
      "name": ""
    },
    {
      "children": [
        16,
        17
      ],
      "matrix": [
        0.021812822669744488,
        -3.5536778273061996e-11,
        -5.013124862135391e-10,
        -0,
        3.5536781307626057e-11,
        -0.021594700216008681,
        0.0030770499933432975,
        -0,
        5.0131252902172058e-10,
        0.0030770499933432975,
        0.021594700216008674,
        -0,
        0,
        -0.19355331361293793,
        -3.6223790645599365,
        1
      ],
      "name": "Cylinder.002_4"
    },
    {
      "mesh": 6,
      "name": ""
    },
    {
      "mesh": 7,
      "name": ""
    },
    {
      "children": [
        19,
        20
      ],
      "matrix": [
        1.8939657435301782e-08,
        3.7879309226146468e-08,
        0.1588773429393712,
        0,
        -0.15887734293937458,
        1.8939657435301782e-08,
        1.8939652919736106e-08,
        0,
        -1.8939652919736106e-08,
        -0.1588773429393712,
        3.7879311483929306e-08,
        0,
        0.81063973903656006,
        0.079430587589740753,
        -0.62053275108337402,
        1
      ],
      "name": "Torus_5"
    },
    {
      "mesh": 8,
      "name": ""
    },
    {
      "mesh": 9,
      "name": ""
    }
  ],
  "scene": 0,
  "scenes": [
    {
      "name": "OSG_Scene",
      "nodes": [
        0
      ]
    }
  ]
}

