mtllib enm_pawn_elv_Spine.mtl

v -5.122559 5.446289 -7.010742
v -6.205078 7.827148 -7.355469
v -7.105469 7.114258 -6.068848
v -6.344238 7.152832 -8.936523
v -5.184082 4.914063 -7.745117
v -7.350586 5.810059 -9.221680
v -5.593262 4.362793 -7.149902
v -8.250488 5.097168 -7.935059
v -8.111816 5.770996 -6.354004
v 2.142090 2.592285 -5.198242
v 1.194824 4.344238 -6.753418
v 1.292480 4.198242 -4.416016
v 1.194824 2.752930 -7.530762
v 1.292480 0.988281 -5.984375
v 0.000000 2.127441 -7.840820
v 0.000000 0.610840 -6.173340
v -1.292480 0.988281 -5.984375
v -1.194824 4.344238 -6.753418
v -1.292480 4.198242 -4.416016
v 0.000000 4.973145 -6.450195
v -2.142090 2.592285 -5.198242
v -1.194824 2.752930 -7.530762
v 7.105469 7.114258 -6.068848
v 5.531738 4.894531 -6.415527
v 8.111816 5.770996 -6.354004
v 5.122559 5.446289 -7.010742
v 6.205078 7.827148 -7.355469
v 6.344238 7.152832 -8.936523
v 0.893555 2.840332 -6.629883
v 0.805176 3.398926 -5.952637
v 5.184082 4.914063 -7.745117
v 7.350586 5.810059 -9.221680
v 1.289551 2.320313 -6.028320
v 5.593262 4.362793 -7.149902
v 8.250488 5.097168 -7.935059
v -5.531738 4.894531 -6.415527
v -8.111816 5.770996 -6.354004
v -0.805176 3.398926 -5.952637
v -0.893555 2.840332 -6.629883
v -5.531738 4.894531 -6.415527
v -1.201660 2.878906 -5.351563
v -1.289551 2.320313 -6.028320
v 0.000000 4.579102 -4.234863
v 1.201660 2.878906 -5.351563
v 8.111816 5.770996 -6.354004
v 5.531738 4.894531 -6.415527
v 1.201660 2.878906 -5.351563
v 1.194824 2.752930 -7.530762
v 0.000000 4.973145 -6.450195
v 1.194824 4.344238 -6.753418
v 0.000000 2.127441 -7.840820
v -1.194824 2.752930 -7.530762
v -1.194824 4.344238 -6.753418
v -1.201660 2.878906 -5.351563

vt 0.380768 0.739105
vt 0.288605 0.738068
vt 0.288605 0.761139
vt 0.288605 0.714996
vt 0.380768 0.688019
vt 0.288605 0.663177
vt 0.380798 0.641296
vt 0.288605 0.640106
vt 0.288605 0.590515
vt 0.137634 0.452789
vt 0.272156 0.484894
vt 0.137634 0.501526
vt 0.272156 0.417908
vt 0.137634 0.404999
vt 0.272156 0.378265
vt 0.137634 0.378265
vt 0.137634 0.404999
vt 0.272156 0.484894
vt 0.137634 0.501526
vt 0.272156 0.529510
vt 0.137634 0.452789
vt 0.272156 0.417908
vt 0.288605 0.761139
vt 0.380768 0.786469
vt 0.288605 0.786469
vt 0.380768 0.739105
vt 0.288605 0.738068
vt 0.288605 0.714996
vt 0.608459 0.687775
vt 0.608459 0.739410
vt 0.380768 0.688019
vt 0.288605 0.663177
vt 0.608459 0.641602
vt 0.380798 0.641296
vt 0.288605 0.640106
vt 0.380768 0.786469
vt 0.288605 0.786469
vt 0.608459 0.739410
vt 0.608459 0.687775
vt 0.380798 0.590515
vt 0.608459 0.590515
vt 0.608459 0.641602
vt 0.137634 0.529510
vt 0.608459 0.786469
vt 0.288605 0.590515
vt 0.380798 0.590515
vt 0.608459 0.590515
vt 0.185303 0.591248
vt 0.265137 0.757202
vt 0.185303 0.709717
vt 0.265137 0.543762
vt 0.185303 0.591248
vt 0.185303 0.709717
vt 0.608459 0.786469

vn 0.737676 0.640630 0.213136
vn 0.873115 0.430118 0.229494
vn 0.373104 0.138793 0.917349
vn 0.799455 0.117190 -0.589184
vn 0.494697 -0.205692 -0.844373
vn 0.235040 -0.596725 -0.767252
vn -0.266291 -0.961041 -0.074095
vn -0.242000 -0.966533 -0.085142
vn -0.221316 -0.602301 0.766976
vn 0.959645 0.122923 -0.252927
vn 0.574638 0.632315 -0.519585
vn 0.623969 0.778207 0.071107
vn 0.574272 0.022766 -0.818348
vn 0.622698 -0.532364 -0.573442
vn 0.000000 -0.275455 -0.961314
vn 0.000000 -0.739821 -0.672803
vn -0.622698 -0.532364 -0.573442
vn -0.574638 0.632315 -0.519585
vn -0.623969 0.778207 0.071107
vn 0.000000 0.928573 -0.371149
vn -0.959645 0.122923 -0.252927
vn -0.574272 0.022766 -0.818348
vn -0.373104 0.138793 0.917349
vn 0.015686 -0.214965 0.976496
vn 0.221316 -0.602301 0.766976
vn -0.737676 0.640630 0.213136
vn -0.873115 0.430118 0.229494
vn -0.799455 0.117190 -0.589184
vn -0.227663 -0.031983 -0.973215
vn -0.410999 0.909214 0.066404
vn -0.494697 -0.205692 -0.844373
vn -0.235040 -0.596725 -0.767252
vn 0.416127 -0.906655 -0.069395
vn 0.266291 -0.961041 -0.074095
vn 0.242000 -0.966533 -0.085142
vn -0.015686 -0.214965 0.976496
vn -0.221316 -0.602301 0.766976
vn 0.410999 0.909214 0.066404
vn 0.227663 -0.031983 -0.973215
vn -0.015686 -0.214965 0.976496
vn -0.235045 0.029053 0.971550
vn -0.416127 -0.906655 -0.069395
vn 0.000000 0.984539 0.175167
vn 0.235045 0.029053 0.971550
vn 0.221316 -0.602301 0.766976
vn 0.015686 -0.214965 0.976496
vn 0.235045 0.029053 0.971550
vn 0.574272 0.022766 -0.818348
vn 0.000000 0.928573 -0.371149
vn 0.574638 0.632315 -0.519585
vn 0.000000 -0.275455 -0.961314
vn -0.574272 0.022766 -0.818348
vn -0.574638 0.632315 -0.519585
vn -0.235045 0.029053 0.971550

g polygon0
s 1
usemtl mat2
f 1/1/1 2/2/2 3/3/3
f 1/1/1 4/4/4 2/2/2
f 5/5/5 4/4/4 1/1/1
f 5/5/5 6/6/6 4/4/4
f 7/7/7 6/6/6 5/5/5
f 7/7/7 8/8/8 6/6/6
f 9/9/9 8/8/8 7/7/7
f 10/10/10 11/11/11 12/12/12
f 10/10/10 13/13/13 11/11/11
f 14/14/14 13/13/13 10/10/10
f 14/14/14 15/15/15 13/13/13
f 16/16/16 15/15/15 14/14/14
f 16/16/16 17/17/17 15/15/15
f 18/18/18 19/19/19 20/20/20
f 18/18/18 21/21/21 19/19/19
f 22/22/22 21/21/21 18/18/18
f 22/22/22 17/17/17 21/21/21
f 15/15/15 17/17/17 22/22/22
f 23/23/23 24/24/24 25/25/25
f 23/23/23 26/26/26 24/24/24
f 27/27/27 26/26/26 23/23/23
f 27/27/27 28/28/28 26/26/26
f 26/26/26 29/29/29 30/30/30
f 26/26/26 31/31/31 29/29/29
f 28/28/28 31/31/31 26/26/26
f 28/28/28 32/32/32 31/31/31
f 31/31/31 33/33/33 29/29/29
f 31/31/31 34/34/34 33/33/33
f 32/32/32 34/34/34 31/31/31
f 32/32/32 35/35/35 34/34/34
f 36/36/36 3/3/3 37/37/37
f 36/36/36 1/1/1 3/3/3
f 38/38/38 1/1/1 36/36/36
f 38/38/38 39/39/39 1/1/1
f 7/7/7 40/40/40 9/9/9
f 7/7/7 41/41/41 40/40/40
f 42/42/42 41/41/41 7/7/7
f 5/5/5 42/42/42 7/7/7
f 5/5/5 39/39/39 42/42/42
f 1/1/1 39/39/39 5/5/5
f 20/20/20 12/12/12 11/11/11
f 20/20/20 43/43/43 12/12/12
f 19/19/19 43/43/43 20/20/20
f 24/24/24 30/30/30 44/44/44
f 24/24/24 26/26/26 30/30/30
f 45/45/45 34/34/34 35/35/35
f 45/45/45 46/46/46 34/34/34
f 47/47/47 34/34/34 46/46/46
f 47/47/47 33/33/33 34/34/34
f 48/48/48 49/49/49 50/50/50
f 48/48/48 51/51/51 49/49/49
f 52/52/52 49/49/49 51/51/51
f 52/52/52 53/53/53 49/49/49
f 54/54/54 38/38/38 36/36/36

v 7.210145 7.461743 -11.897018
v 7.503112 4.516186 -12.274215
v 5.778992 6.456861 -12.460983
v 9.510437 5.751781 -10.958785
v 8.578065 8.184887 -10.363327
v 10.583191 6.422436 -8.604293
v 9.514344 8.432934 -8.276901
v 9.820007 8.137035 -6.016159
v 7.814881 9.899732 -7.775192
v 7.787781 9.622388 -5.116745
v 5.824891 10.574048 -7.199265
v 5.184510 9.726149 -4.410690
v 4.081483 10.270826 -6.704391
v 9.135680 3.081127 -10.842330
v 10.849547 4.262524 -8.704146
v 10.912048 5.697826 -6.052536
v 9.464294 7.374829 -4.006393
v 6.817078 8.291089 -2.978805
v 10.238708 2.536450 -8.548629
v 10.516784 3.028149 -6.007857
v 9.895446 4.424145 -3.900680
v 8.541199 6.350415 -2.792037
v 10.238708 2.536450 -8.548629
v 4.081483 10.270826 -6.704391
v 3.803407 9.779127 -9.245163
v 5.184510 9.726149 -4.410690
v 10.516784 3.028149 -6.007857
v 6.817078 8.291089 -2.978805
v 9.895446 4.424145 -3.900680
v 8.541199 6.350415 -2.792037
v 3.803407 9.779127 -9.245163
v 6.386170 9.676343 -10.022995
v 4.424744 8.383130 -11.352341
v 7.503112 4.516186 -12.274215
v 4.424744 8.383130 -11.352341
v 5.778992 6.456861 -12.460983
v 9.135680 3.081127 -10.842330

vt 0.928406 0.302917
vt 0.955933 0.154083
vt 0.994263 0.302917
vt 0.845062 0.160400
vt 0.829468 0.302917
vt 0.708069 0.176666
vt 0.708069 0.302917
vt 0.829468 0.302917
vt 0.708069 0.429199
vt 0.845062 0.445435
vt 0.708069 0.532135
vt 0.851166 0.560730
vt 0.708069 0.600616
vt 0.851166 0.045105
vt 0.708069 0.073730
vt 0.845062 0.160400
vt 0.928406 0.302917
vt 0.955933 0.451782
vt 0.708069 0.005219
vt 0.851166 0.045105
vt 0.955933 0.154083
vt 0.994263 0.302917
vt 0.694672 0.005463
vt 0.693390 0.594940
vt 0.556335 0.555084
vt 0.556335 0.555084
vt 0.557465 0.044556
vt 0.455200 0.446899
vt 0.455841 0.152161
vt 0.418427 0.299438
vt 0.851166 0.560730
vt 0.845062 0.445435
vt 0.955933 0.451782
vt 0.455841 0.152161
vt 0.455200 0.446899
vt 0.418427 0.299438
vt 0.557465 0.044556

vn 0.308165 0.445737 -0.840448
vn 0.479789 0.053039 -0.875779
vn 0.135803 0.330749 -0.933897
vn 0.722171 0.147034 -0.675906
vn 0.591425 0.599420 -0.539362
vn 0.912907 0.316835 -0.257325
vn 0.741407 0.639049 -0.204776
vn 0.790530 0.591799 0.157593
vn 0.469070 0.874356 -0.124394
vn 0.416328 0.834304 0.361396
vn 0.062377 0.998029 -0.006836
vn 0.100220 0.905883 0.411499
vn -0.155945 0.986210 0.055420
vn 0.743403 -0.178710 -0.644527
vn 0.953987 -0.121949 -0.273928
vn 0.971073 0.137452 0.195252
vn 0.708210 0.430309 0.559707
vn 0.363836 0.674143 0.642771
vn 0.902211 -0.342953 -0.261532
vn 0.970628 -0.187497 0.150755
vn 0.870286 0.037963 0.491081
vn 0.610538 0.312502 0.727726
vn -0.741407 -0.639049 0.204776
vn -0.741407 -0.639049 0.204776
vn -0.741407 -0.639049 0.204776
vn -0.741407 -0.639049 0.204776
vn -0.741407 -0.639049 0.204776
vn -0.741407 -0.639049 0.204776
vn -0.741407 -0.639049 0.204776
vn -0.741407 -0.639049 0.204776
vn -0.127018 0.914639 -0.383800
vn 0.167483 0.843885 -0.509713
vn -0.026672 0.689152 -0.724126
vn -0.741407 -0.639049 0.204776
vn -0.741407 -0.639049 0.204776
vn -0.741407 -0.639049 0.204776
vn -0.741407 -0.639049 0.204776

g polygon1
s 1
usemtl mat2
f 55/55/55 56/56/56 57/57/57
f 55/55/55 58/58/58 56/56/56
f 59/59/59 58/58/58 55/55/55
f 59/59/59 60/60/60 58/58/58
f 61/61/61 60/60/60 59/59/59
f 61/61/61 62/62/62 60/60/60
f 63/63/63 62/62/62 61/61/61
f 63/63/63 64/64/64 62/62/62
f 65/65/65 64/64/64 63/63/63
f 65/65/65 66/66/66 64/64/64
f 67/67/67 66/66/66 65/65/65
f 58/58/58 68/68/68 56/56/56
f 58/58/58 69/69/69 68/68/68
f 60/60/60 69/69/69 58/58/58
f 60/60/60 70/70/70 69/69/69
f 62/62/62 70/70/70 60/60/60
f 62/62/62 71/71/71 70/70/70
f 64/64/64 71/71/71 62/62/62
f 64/64/64 72/72/72 71/71/71
f 66/66/66 72/72/72 64/64/64
f 69/69/69 73/73/73 68/68/68
f 69/69/69 74/74/74 73/73/73
f 70/70/70 74/74/74 69/69/69
f 70/70/70 75/75/75 74/74/74
f 71/71/71 75/75/75 70/70/70
f 71/71/71 76/76/76 75/75/75
f 72/72/72 76/76/76 71/71/71
f 77/77/77 78/78/78 79/79/79
f 77/77/77 80/80/80 78/78/78
f 81/81/81 80/80/80 77/77/77
f 81/81/81 82/82/82 80/80/80
f 83/83/83 82/82/82 81/81/81
f 83/83/83 84/84/84 82/82/82
f 65/65/65 85/85/85 67/67/67
f 65/65/65 86/86/86 85/85/85
f 63/63/63 86/86/86 65/65/65
f 63/63/63 59/59/59 86/86/86
f 61/61/61 59/59/59 63/63/63
f 86/86/86 87/87/87 85/85/85
f 86/86/86 55/55/55 87/87/87
f 59/59/59 55/55/55 86/86/86
f 88/88/88 89/89/89 90/90/90
f 88/88/88 91/91/91 89/89/89
f 91/91/91 79/79/79 89/89/89
f 91/91/91 77/77/77 79/79/79
f 57/57/57 87/87/87 55/55/55

v 9.536683 8.452099 -8.283005
v 10.319397 6.979443 -8.522750
v 8.850770 8.270458 -9.811203
v 9.760437 8.235424 -6.627120
v 8.291810 9.526441 -7.915451

vt 0.500000 0.500000
vt 0.495483 1.006897
vt 1.006897 0.504517
vt -0.006897 0.495483
vt 0.504517 -0.006897

vn 7924809334889683200000000000000000.000000 7840161470883427500000000000000000.000000 -1.#QNAN0
vn 7924809334889683200000000000000000.000000 7840161470883427500000000000000000.000000 -1.#QNAN0
vn 7924809334889683200000000000000000.000000 7840161470883427500000000000000000.000000 -1.#QNAN0
vn 7900660838543343300000000000000000.000000 0.000000 0.000000
vn 7900660838543343300000000000000000.000000 0.000000 0.000000

g polygon2
s 1
usemtl mat1
f 92/92/92 93/93/93 94/94/94
f 92/92/92 95/95/95 93/93/93
f 96/96/96 95/95/95 92/92/92
f 94/94/94 96/96/96 92/92/92

v -9.510438 5.751784 -10.958785
v -7.210145 7.461745 -11.897018
v -7.503358 4.516188 -12.274215
v -8.578064 8.184890 -10.363326
v -10.583191 6.422439 -8.604293
v -9.514343 8.432937 -8.276656
v -9.820006 8.137039 -6.016158
v -7.814880 9.899734 -7.775192
v -7.787780 9.622390 -5.116745
v -5.824889 10.574050 -7.199265
v -5.184508 9.726150 -4.410691
v -5.778993 6.456861 -12.460983
v -4.424744 8.383375 -11.352341
v -6.386169 9.676345 -10.022995
v -3.803406 9.779371 -9.245164
v -4.081481 10.270827 -6.704392
v -4.424744 8.383375 -11.352341
v -7.503358 4.516188 -12.274215
v -5.778993 6.456861 -12.460983
v -9.135682 3.081130 -10.842330
v -3.803406 9.779371 -9.245164
v -10.238709 2.536453 -8.548628
v -4.081481 10.270827 -6.704392
v -5.184508 9.726150 -4.410691
v -9.135682 3.081130 -10.842330
v -10.849549 4.262527 -8.704145
v -10.238709 2.536453 -8.548628
v -10.516785 3.027908 -6.007857
v -10.912048 5.697830 -6.052535
v -9.895447 4.423904 -3.900679
v -9.464293 7.374832 -4.006392
v -8.541198 6.350418 -2.792037
v -6.816832 8.291092 -2.978805
v -9.895447 4.423904 -3.900679
v -6.816832 8.291092 -2.978805
v -8.541198 6.350418 -2.792037
v -10.516785 3.027908 -6.007857

vt 0.845062 0.160400
vt 0.928406 0.302917
vt 0.955933 0.154083
vt 0.829468 0.302917
vt 0.708069 0.176666
vt 0.708069 0.302917
vt 0.829468 0.302917
vt 0.708069 0.429199
vt 0.845062 0.445435
vt 0.708069 0.532135
vt 0.851166 0.560730
vt 0.994263 0.302917
vt 0.955933 0.451782
vt 0.845062 0.445435
vt 0.851166 0.560730
vt 0.708069 0.600616
vt 0.455200 0.446899
vt 0.455841 0.152161
vt 0.418427 0.299438
vt 0.557465 0.044556
vt 0.556335 0.555084
vt 0.694244 0.005463
vt 0.694244 0.594940
vt 0.556335 0.555084
vt 0.851166 0.045105
vt 0.708069 0.073730
vt 0.708069 0.005219
vt 0.851166 0.045105
vt 0.845062 0.160400
vt 0.955933 0.154083
vt 0.928406 0.302917
vt 0.994263 0.302917
vt 0.955933 0.451782
vt 0.455841 0.152161
vt 0.455200 0.446899
vt 0.418427 0.299438
vt 0.557465 0.044556

vn -0.722171 0.147034 -0.675906
vn -0.308165 0.445737 -0.840448
vn -0.479790 0.053039 -0.875779
vn -0.591444 0.599440 -0.539319
vn -0.912907 0.316835 -0.257325
vn -0.741406 0.639049 -0.204776
vn -0.790530 0.591799 0.157593
vn -0.469070 0.874357 -0.124394
vn -0.416328 0.834305 0.361396
vn -0.062377 0.998029 -0.006836
vn -0.100219 0.905883 0.411499
vn -0.135803 0.330749 -0.933897
vn 0.026672 0.689152 -0.724126
vn -0.167483 0.843885 -0.509713
vn 0.127018 0.914639 -0.383800
vn 0.155946 0.986210 0.055420
vn 0.741406 -0.639049 0.204776
vn 0.741406 -0.639049 0.204776
vn 0.741406 -0.639049 0.204776
vn 0.741406 -0.639049 0.204776
vn 0.741406 -0.639049 0.204776
vn 0.741406 -0.639049 0.204776
vn 0.741406 -0.639049 0.204776
vn 0.741406 -0.639049 0.204776
vn -0.743432 -0.178717 -0.644491
vn -0.954003 -0.121951 -0.273871
vn -0.902211 -0.342952 -0.261532
vn -0.970619 -0.187495 0.150814
vn -0.971073 0.137452 0.195252
vn -0.870286 0.037963 0.491081
vn -0.708186 0.430295 0.559749
vn -0.610473 0.312500 0.727782
vn -0.363836 0.674143 0.642771
vn 0.741406 -0.639049 0.204776
vn 0.741406 -0.639049 0.204776
vn 0.741406 -0.639049 0.204776
vn 0.741406 -0.639049 0.204776

g polygon3
s 1
usemtl mat2
f 97/97/97 98/98/98 99/99/99
f 97/97/97 100/100/100 98/98/98
f 101/101/101 100/100/100 97/97/97
f 101/101/101 102/102/102 100/100/100
f 103/103/103 102/102/102 101/101/101
f 103/103/103 104/104/104 102/102/102
f 105/105/105 104/104/104 103/103/103
f 105/105/105 106/106/106 104/104/104
f 107/107/107 106/106/106 105/105/105
f 98/98/98 108/108/108 99/99/99
f 98/98/98 109/109/109 108/108/108
f 110/110/110 109/109/109 98/98/98
f 110/110/110 111/111/111 109/109/109
f 106/106/106 111/111/111 110/110/110
f 106/106/106 112/112/112 111/111/111
f 107/107/107 112/112/112 106/106/106
f 113/113/113 114/114/114 115/115/115
f 113/113/113 116/116/116 114/114/114
f 117/117/117 116/116/116 113/113/113
f 117/117/117 118/118/118 116/116/116
f 119/119/119 118/118/118 117/117/117
f 119/119/119 120/120/120 118/118/118
f 121/121/121 97/97/97 99/99/99
f 121/121/121 122/122/122 97/97/97
f 123/123/123 122/122/122 121/121/121
f 123/123/123 124/124/124 122/122/122
f 122/122/122 101/101/101 97/97/97
f 122/122/122 125/125/125 101/101/101
f 124/124/124 125/125/125 122/122/122
f 124/124/124 126/126/126 125/125/125
f 125/125/125 103/103/103 101/101/101
f 125/125/125 127/127/127 103/103/103
f 126/126/126 127/127/127 125/125/125
f 126/126/126 128/128/128 127/127/127
f 110/110/110 104/104/104 106/106/106
f 110/110/110 100/100/100 104/104/104
f 98/98/98 100/100/100 110/110/110
f 105/105/105 129/129/129 107/107/107
f 105/105/105 127/127/127 129/129/129
f 103/103/103 127/127/127 105/105/105
f 130/130/130 131/131/131 132/132/132
f 130/130/130 133/133/133 131/131/131
f 133/133/133 120/120/120 131/131/131
f 133/133/133 118/118/118 120/120/120
f 104/104/104 100/100/100 102/102/102
f 128/128/128 129/129/129 127/127/127

v -9.536682 8.452102 -8.282882
v -8.850769 8.270461 -9.811202
v -10.319397 6.979446 -8.522750
v -8.291808 9.526443 -7.915451
v -9.760436 8.235428 -6.626998

vt 0.500000 0.500000
vt 1.006897 0.504517
vt 0.495483 1.006897
vt 0.504517 -0.006897
vt -0.006897 0.495483

vn 7924809334889683200000000000000000.000000 7840161470883427500000000000000000.000000 -1.#QNAN0
vn 7924809334889683200000000000000000.000000 7840161470883427500000000000000000.000000 -1.#QNAN0
vn 7924809334889683200000000000000000.000000 7840161470883427500000000000000000.000000 -1.#QNAN0
vn 7900660838543343300000000000000000.000000 0.000000 0.000000
vn 7900660838543343300000000000000000.000000 0.000000 0.000000

g polygon4
s 1
usemtl mat1
f 134/134/134 135/135/135 136/136/136
f 134/134/134 137/137/137 135/135/135
f 138/138/138 137/137/137 134/134/134
f 136/136/136 138/138/138 134/134/134

