mtllib enm_pawn_shp_ForeArm_R.mtl

v -2.357422 -7.691406 0.000000
v -2.275879 -5.096680 -2.275879
v -1.666992 -7.691406 -1.666992
v -3.218262 -5.096680 0.000000
v -1.666992 -7.691406 1.666992
v -2.275879 -5.096680 2.275879
v 0.000000 -7.691406 2.357422
v 0.000000 -5.096680 3.218262
v 1.666992 -7.691406 1.666992
v 2.275879 -5.096680 2.275879
v 2.357422 -7.691406 0.000000
v 3.218262 -5.096680 0.000000
v 1.666992 -7.691406 -1.666992
v 2.275879 -5.096680 -2.275879
v 0.000000 -7.180176 -2.526855
v -0.535645 -5.096680 -2.996582
v 0.000000 -7.691406 -2.357422
v 2.275879 -5.096680 -2.275879
v 0.535645 -5.096680 -2.996582
v 1.666992 -7.691406 -1.666992

vt 0.579437 0.004852
vt 0.522522 0.178314
vt 0.522522 0.004852
vt 0.579437 0.178314
vt 0.636322 0.004852
vt 0.636322 0.178314
vt 0.693207 0.004852
vt 0.693207 0.178314
vt 0.750092 0.004852
vt 0.750092 0.178314
vt 0.807007 0.004852
vt 0.807007 0.178314
vt 0.863892 0.004852
vt 0.863892 0.178314
vt 0.465637 0.039032
vt 0.479034 0.178314
vt 0.465637 0.004852
vt 0.408752 0.178314
vt 0.452240 0.178314
vt 0.408752 0.004852

vn -0.950230 -0.311551 0.000000
vn -0.671711 -0.312424 -0.671711
vn -0.671711 -0.312424 -0.671711
vn -0.950230 -0.311551 0.000000
vn -0.671711 -0.312424 0.671711
vn -0.671711 -0.312424 0.671711
vn 0.000000 -0.311551 0.950230
vn 0.000000 -0.311551 0.950230
vn 0.671711 -0.312424 0.671711
vn 0.671711 -0.312424 0.671711
vn 0.950230 -0.311551 0.000000
vn 0.950230 -0.311551 0.000000
vn 0.671711 -0.312424 -0.671711
vn 0.671711 -0.312424 -0.671711
vn 0.000000 -0.311551 -0.950230
vn -0.357503 -0.295329 -0.885987
vn 0.000000 -0.311551 -0.950230
vn 0.671711 -0.312424 -0.671711
vn 0.357503 -0.295329 -0.885987
vn 0.671711 -0.312424 -0.671711

g polygon0
s 1
usemtl mat1
f 1/1/1 2/2/2 3/3/3
f 1/1/1 4/4/4 2/2/2
f 5/5/5 4/4/4 1/1/1
f 5/5/5 6/6/6 4/4/4
f 7/7/7 6/6/6 5/5/5
f 7/7/7 8/8/8 6/6/6
f 9/9/9 8/8/8 7/7/7
f 9/9/9 10/10/10 8/8/8
f 11/11/11 10/10/10 9/9/9
f 11/11/11 12/12/12 10/10/10
f 13/13/13 12/12/12 11/11/11
f 13/13/13 14/14/14 12/12/12
f 15/15/15 2/2/2 16/16/16
f 15/15/15 3/3/3 2/2/2
f 17/17/17 3/3/3 15/15/15
f 18/18/18 15/15/15 19/19/19
f 18/18/18 20/20/20 15/15/15
f 15/15/15 20/20/20 17/17/17

