mtllib enm_pawn_fct_Weapon_R.mtl

v 0.000000 -0.800781 3.141602
v 0.894531 -0.894531 -4.075195
v 0.566406 -0.566406 3.141602
v 0.000000 -1.265625 -4.075195
v -0.894531 -0.894531 -4.075195
v 0.000000 0.000000 -5.360352
v -1.265625 0.000000 -4.075195
v -0.894531 0.894531 -4.075195
v -0.800781 0.000000 3.141602
v -0.566406 0.566406 3.141602
v 1.265625 0.000000 -4.075195
v 0.894531 0.894531 -4.075195
v 0.800781 0.000000 3.141602
v 0.566406 0.566406 3.141602
v 0.566406 0.566406 3.141602
v 0.566406 -0.566406 3.141602
v 0.800781 0.000000 3.141602
v 0.000000 -0.800781 3.141602
v 0.000000 0.800781 3.141602
v -0.566406 0.566406 3.141602
v -0.566406 -0.566406 3.141602
v 0.000000 1.265625 -4.075195
v 0.000000 0.800781 3.141602
v -0.674805 0.180664 6.863281
v -0.674805 -0.180664 6.863281
v -1.408203 -0.227539 10.206055
v 0.000000 0.000000 -2.085938
v -2.254883 1.678711 21.323242
v -2.581055 1.113281 21.323242
v 0.000000 0.000000 22.564453
v -3.382813 2.360352 19.119141
v -3.735352 1.749023 19.119141
v -3.347656 2.339844 16.381836
v -3.700195 1.728516 16.381836
v -2.373047 1.777344 13.440430
v -2.726563 1.166992 13.440430
v -1.106445 0.901367 10.206055
v -1.333008 0.506836 10.206055
v -0.494141 0.494141 6.863281
v -0.674805 0.180664 6.863281
v -1.113281 2.581055 21.323242
v -1.678711 2.254883 21.323242
v -1.749023 3.735352 19.119141
v -2.360352 3.382813 19.119141
v -1.728516 3.700195 16.381836
v -2.339844 3.347656 16.381836
v -1.166992 2.726563 13.440430
v -1.777344 2.373047 13.440430
v -0.506836 1.333008 10.206055
v -0.901367 1.106445 10.206055
v -0.180664 0.674805 6.863281
v -0.494141 0.494141 6.863281
v 0.326172 2.791992 21.323242
v -0.326172 2.791992 21.323242
v 0.352539 4.110352 19.119141
v -0.352539 4.110352 19.119141
v 0.352539 4.069336 16.381836
v -0.352539 4.069336 16.381836
v 0.352539 2.944336 13.440430
v -0.352539 2.944336 13.440430
v 0.227539 1.408203 10.206055
v -0.227539 1.408203 10.206055
v 0.180664 0.674805 6.863281
v -0.180664 0.674805 6.863281
v 1.678711 2.254883 21.323242
v 1.113281 2.581055 21.323242
v 2.360352 3.382813 19.119141
v 1.749023 3.735352 19.119141
v 2.339844 3.347656 16.381836
v 1.728516 3.700195 16.381836
v 1.777344 2.373047 13.440430
v 1.166992 2.726563 13.440430
v 0.901367 1.106445 10.206055
v 0.506836 1.333008 10.206055
v 0.494141 0.494141 6.863281
v 0.180664 0.674805 6.863281
v 2.581055 1.113281 21.323242
v 2.254883 1.678711 21.323242
v 3.735352 1.749023 19.119141
v 3.382813 2.360352 19.119141
v 3.700195 1.728516 16.381836
v 3.347656 2.339844 16.381836
v 2.726563 1.166992 13.440430
v 2.373047 1.777344 13.440430
v 1.333008 0.506836 10.206055
v 1.106445 0.901367 10.206055
v 0.674805 0.180664 6.863281
v 0.494141 0.494141 6.863281
v 2.791992 -0.326172 21.323242
v 2.791992 0.326172 21.323242
v 4.110352 -0.352539 19.119141
v 4.110352 0.352539 19.119141
v 4.069336 -0.352539 16.381836
v 4.069336 0.352539 16.381836
v 2.944336 -0.352539 13.440430
v 2.944336 0.352539 13.440430
v 1.408203 -0.227539 10.206055
v 1.408203 0.227539 10.206055
v 0.674805 -0.180664 6.863281
v 0.674805 0.180664 6.863281
v 2.254883 -1.678711 21.323242
v 2.581055 -1.113281 21.323242
v 3.382813 -2.360352 19.119141
v 3.735352 -1.749023 19.119141
v 3.347656 -2.339844 16.381836
v 3.700195 -1.728516 16.381836
v 2.373047 -1.777344 13.440430
v 2.726563 -1.166992 13.440430
v 1.106445 -0.901367 10.206055
v 1.333008 -0.506836 10.206055
v 0.494141 -0.494141 6.863281
v 0.674805 -0.180664 6.863281
v 1.113281 -2.581055 21.323242
v 1.678711 -2.254883 21.323242
v 1.749023 -3.735352 19.119141
v 2.360352 -3.382813 19.119141
v 1.728516 -3.700195 16.381836
v 2.339844 -3.347656 16.381836
v 1.166992 -2.726563 13.440430
v 1.777344 -2.373047 13.440430
v 0.506836 -1.333008 10.206055
v 0.901367 -1.106445 10.206055
v 0.180664 -0.674805 6.863281
v 0.494141 -0.494141 6.863281
v -0.326172 -2.791992 21.323242
v 0.326172 -2.791992 21.323242
v -0.352539 -4.110352 19.119141
v 0.352539 -4.110352 19.119141
v -0.352539 -4.069336 16.381836
v 0.352539 -4.069336 16.381836
v -0.352539 -2.944336 13.440430
v 0.352539 -2.944336 13.440430
v -0.227539 -1.408203 10.206055
v 0.227539 -1.408203 10.206055
v -0.180664 -0.674805 6.863281
v 0.180664 -0.674805 6.863281
v -1.678711 -2.254883 21.323242
v -1.113281 -2.581055 21.323242
v -2.360352 -3.382813 19.119141
v -1.749023 -3.735352 19.119141
v -2.339844 -3.347656 16.381836
v -1.728516 -3.700195 16.381836
v -1.777344 -2.373047 13.440430
v -1.166992 -2.726563 13.440430
v -0.901367 -1.106445 10.206055
v -0.506836 -1.333008 10.206055
v -0.494141 -0.494141 6.863281
v -0.180664 -0.674805 6.863281
v -2.581055 -1.113281 21.323242
v -2.254883 -1.678711 21.323242
v -3.735352 -1.749023 19.119141
v -3.382813 -2.360352 19.119141
v -3.700195 -1.728516 16.381836
v -3.347656 -2.339844 16.381836
v -2.726563 -1.166992 13.440430
v -2.373047 -1.777344 13.440430
v -1.333008 -0.506836 10.206055
v -1.106445 -0.901367 10.206055
v -0.674805 -0.180664 6.863281
v -0.494141 -0.494141 6.863281
v -2.791992 0.326172 21.323242
v -2.791992 -0.326172 21.323242
v -4.110352 0.352539 19.119141
v -0.566406 -0.566406 3.141602
v -0.800781 0.000000 3.141602
v -4.110352 -0.352539 19.119141
v -4.069336 0.352539 16.381836
v -4.069336 -0.352539 16.381836
v -2.944336 0.352539 13.440430
v -2.944336 -0.352539 13.440430
v -1.408203 0.227539 10.206055

vt 0.983887 0.438507
vt 0.890839 0.141785
vt 0.890839 0.438507
vt 0.983887 0.141785
vt 0.890839 0.141785
vt 0.797089 0.088959
vt 0.797791 0.141785
vt 0.704712 0.141785
vt 0.797791 0.438507
vt 0.704712 0.438507
vt 0.797791 0.141785
vt 0.704712 0.141785
vt 0.797791 0.438507
vt 0.704712 0.438507
vt 0.974304 0.065063
vt 0.843170 0.065735
vt 0.911285 0.088623
vt 0.809875 0.009796
vt 0.995331 0.008850
vt 0.974304 0.065063
vt 0.890839 0.438507
vt 0.611664 0.141785
vt 0.611664 0.438507
vt 0.028442 0.171539
vt 0.125397 0.171539
vt 0.125397 0.335663
vt 0.076904 -0.214325
vt 0.028442 0.828094
vt 0.125397 0.828094
vt 0.076904 0.992249
vt 0.028442 0.746033
vt 0.125397 0.746033
vt 0.028442 0.663971
vt 0.125397 0.663971
vt 0.028442 0.499817
vt 0.125397 0.499817
vt 0.028442 0.335663
vt 0.125397 0.335663
vt 0.028442 0.171539
vt 0.125397 0.171539
vt 0.028442 0.828094
vt 0.125397 0.828094
vt 0.028442 0.746033
vt 0.125397 0.746033
vt 0.028442 0.663971
vt 0.125397 0.663971
vt 0.028442 0.499817
vt 0.125397 0.499817
vt 0.028442 0.335663
vt 0.125397 0.335663
vt 0.028442 0.171539
vt 0.125397 0.171539
vt 0.028442 0.828094
vt 0.125397 0.828094
vt 0.028442 0.746033
vt 0.125397 0.746033
vt 0.028442 0.663971
vt 0.125397 0.663971
vt 0.028442 0.499817
vt 0.125397 0.499817
vt 0.028442 0.335663
vt 0.125397 0.335663
vt 0.028442 0.171539
vt 0.125397 0.171539
vt 0.028442 0.828094
vt 0.125397 0.828094
vt 0.028442 0.746033
vt 0.125397 0.746033
vt 0.028442 0.663971
vt 0.125397 0.663971
vt 0.028442 0.499817
vt 0.125397 0.499817
vt 0.028442 0.335663
vt 0.125397 0.335663
vt 0.028442 0.171539
vt 0.125397 0.171539
vt 0.028442 0.828094
vt 0.125397 0.828094
vt 0.028442 0.746033
vt 0.125397 0.746033
vt 0.028442 0.663971
vt 0.125397 0.663971
vt 0.028442 0.499817
vt 0.125397 0.499817
vt 0.028442 0.335663
vt 0.125397 0.335663
vt 0.028442 0.171539
vt 0.125397 0.171539
vt 0.028442 0.828094
vt 0.125397 0.828094
vt 0.028442 0.746033
vt 0.125397 0.746033
vt 0.028442 0.663971
vt 0.125397 0.663971
vt 0.028442 0.499817
vt 0.125397 0.499817
vt 0.028442 0.335663
vt 0.125397 0.335663
vt 0.028442 0.171539
vt 0.125397 0.171539
vt 0.028442 0.828094
vt 0.125397 0.828094
vt 0.028442 0.746033
vt 0.125397 0.746033
vt 0.028442 0.663971
vt 0.125397 0.663971
vt 0.028442 0.499817
vt 0.125397 0.499817
vt 0.028442 0.335663
vt 0.125397 0.335663
vt 0.028442 0.171539
vt 0.125397 0.171539
vt 0.028442 0.828094
vt 0.125397 0.828094
vt 0.028442 0.746033
vt 0.125397 0.746033
vt 0.028442 0.663971
vt 0.125397 0.663971
vt 0.028442 0.499817
vt 0.125397 0.499817
vt 0.028442 0.335663
vt 0.125397 0.335663
vt 0.028442 0.171539
vt 0.125397 0.171539
vt 0.028442 0.828094
vt 0.125397 0.828094
vt 0.028442 0.746033
vt 0.125397 0.746033
vt 0.028442 0.663971
vt 0.125397 0.663971
vt 0.028442 0.499817
vt 0.125397 0.499817
vt 0.028442 0.335663
vt 0.125397 0.335663
vt 0.028442 0.171539
vt 0.125397 0.171539
vt 0.028442 0.828094
vt 0.125397 0.828094
vt 0.028442 0.746033
vt 0.125397 0.746033
vt 0.028442 0.663971
vt 0.125397 0.663971
vt 0.028442 0.499817
vt 0.125397 0.499817
vt 0.028442 0.335663
vt 0.125397 0.335663
vt 0.028442 0.171539
vt 0.125397 0.171539
vt 0.028442 0.828094
vt 0.125397 0.828094
vt 0.028442 0.746033
vt 0.125397 0.746033
vt 0.028442 0.663971
vt 0.125397 0.663971
vt 0.028442 0.499817
vt 0.125397 0.499817
vt 0.028442 0.335663
vt 0.125397 0.335663
vt 0.028442 0.171539
vt 0.125397 0.171539
vt 0.028442 0.828094
vt 0.125397 0.828094
vt 0.028442 0.746033
vt 0.843170 0.065735
vt 0.911285 0.088623
vt 0.125397 0.746033
vt 0.028442 0.663971
vt 0.125397 0.663971
vt 0.028442 0.499817
vt 0.125397 0.499817
vt 0.028442 0.335663

vn 0.000000 -0.997936 0.064210
vn 0.669852 -0.669852 -0.320308
vn 0.705648 -0.705648 0.064211
vn 0.000000 -0.947313 -0.320308
vn -0.669852 -0.669852 -0.320308
vn 0.000000 0.000000 -1.000000
vn -0.947313 0.000000 -0.320308
vn -0.669852 0.669852 -0.320308
vn -0.997936 0.000000 0.064210
vn -0.705648 0.705648 0.064211
vn 0.947313 0.000000 -0.320308
vn 0.669852 0.669852 -0.320308
vn 0.997936 0.000000 0.064210
vn 0.705648 0.705648 0.064211
vn 0.000000 0.000000 1.000000
vn 0.000000 0.000000 1.000000
vn 0.000000 0.000000 1.000000
vn 0.000000 0.000000 1.000000
vn 0.000000 0.000000 1.000000
vn 0.000000 0.000000 1.000000
vn -0.705648 -0.705648 0.064211
vn 0.000000 0.947313 -0.320308
vn 0.000000 0.997936 0.064210
vn -0.954864 0.255868 -0.150884
vn -0.954864 -0.255868 -0.150884
vn -0.945562 0.000000 -0.325441
vn 0.000000 0.000000 -1.000000
vn -0.582218 0.336123 0.740300
vn -0.582218 0.336123 0.740300
vn 0.000000 0.000000 1.000000
vn -0.836706 0.483079 0.257988
vn -0.836706 0.483079 0.257988
vn -0.850429 0.491008 -0.188896
vn -0.850429 0.491008 -0.188896
vn -0.796393 0.459781 -0.392886
vn -0.796393 0.459781 -0.392886
vn -0.818892 0.472768 -0.325433
vn -0.818892 0.472768 -0.325433
vn -0.699013 0.699013 -0.150874
vn -0.954864 0.255868 -0.150884
vn -0.336123 0.582218 0.740300
vn -0.336123 0.582218 0.740300
vn -0.483079 0.836706 0.257988
vn -0.483079 0.836706 0.257988
vn -0.491008 0.850429 -0.188896
vn -0.491008 0.850429 -0.188896
vn -0.459781 0.796393 -0.392886
vn -0.459781 0.796393 -0.392886
vn -0.472768 0.818892 -0.325433
vn -0.472768 0.818892 -0.325433
vn -0.255868 0.954864 -0.150884
vn -0.699013 0.699013 -0.150874
vn 0.000000 0.672293 0.740285
vn 0.000000 0.672293 0.740285
vn 0.000000 0.966145 0.258001
vn 0.000000 0.966145 0.258001
vn 0.000000 0.981996 -0.188904
vn 0.000000 0.981996 -0.188904
vn 0.000000 0.919583 -0.392895
vn 0.000000 0.919583 -0.392895
vn 0.000000 0.945562 -0.325441
vn 0.000000 0.945562 -0.325441
vn 0.255868 0.954864 -0.150884
vn -0.255868 0.954864 -0.150884
vn 0.336123 0.582218 0.740300
vn 0.336123 0.582218 0.740300
vn 0.483079 0.836706 0.257988
vn 0.483079 0.836706 0.257988
vn 0.491008 0.850429 -0.188896
vn 0.491008 0.850429 -0.188896
vn 0.459781 0.796393 -0.392886
vn 0.459781 0.796393 -0.392886
vn 0.472768 0.818892 -0.325433
vn 0.472768 0.818892 -0.325433
vn 0.699013 0.699013 -0.150874
vn 0.255868 0.954864 -0.150884
vn 0.582218 0.336123 0.740300
vn 0.582218 0.336123 0.740300
vn 0.836706 0.483079 0.257988
vn 0.836706 0.483079 0.257988
vn 0.850429 0.491008 -0.188896
vn 0.850429 0.491008 -0.188896
vn 0.796393 0.459781 -0.392886
vn 0.796393 0.459781 -0.392886
vn 0.818892 0.472768 -0.325433
vn 0.818892 0.472768 -0.325433
vn 0.954864 0.255868 -0.150884
vn 0.699013 0.699013 -0.150874
vn 0.672293 0.000000 0.740285
vn 0.672293 0.000000 0.740285
vn 0.966145 0.000000 0.258001
vn 0.966145 0.000000 0.258001
vn 0.981996 0.000000 -0.188904
vn 0.981996 0.000000 -0.188904
vn 0.919583 0.000000 -0.392895
vn 0.919583 0.000000 -0.392895
vn 0.945562 0.000000 -0.325441
vn 0.945562 0.000000 -0.325441
vn 0.954864 -0.255868 -0.150884
vn 0.954864 0.255868 -0.150884
vn 0.582218 -0.336123 0.740300
vn 0.582218 -0.336123 0.740300
vn 0.836706 -0.483079 0.257988
vn 0.836706 -0.483079 0.257988
vn 0.850429 -0.491008 -0.188896
vn 0.850429 -0.491008 -0.188896
vn 0.796393 -0.459781 -0.392886
vn 0.796393 -0.459781 -0.392886
vn 0.818892 -0.472768 -0.325433
vn 0.818892 -0.472768 -0.325433
vn 0.699013 -0.699013 -0.150874
vn 0.954864 -0.255868 -0.150884
vn 0.336123 -0.582218 0.740300
vn 0.336123 -0.582218 0.740300
vn 0.483079 -0.836706 0.257988
vn 0.483079 -0.836706 0.257988
vn 0.491008 -0.850429 -0.188896
vn 0.491008 -0.850429 -0.188896
vn 0.459781 -0.796393 -0.392886
vn 0.459781 -0.796393 -0.392886
vn 0.472768 -0.818892 -0.325433
vn 0.472768 -0.818892 -0.325433
vn 0.255868 -0.954864 -0.150884
vn 0.699013 -0.699013 -0.150874
vn 0.000000 -0.672293 0.740285
vn 0.000000 -0.672293 0.740285
vn 0.000000 -0.966145 0.258001
vn 0.000000 -0.966145 0.258001
vn 0.000000 -0.981996 -0.188904
vn 0.000000 -0.981996 -0.188904
vn 0.000000 -0.919583 -0.392895
vn 0.000000 -0.919583 -0.392895
vn 0.000000 -0.945562 -0.325441
vn 0.000000 -0.945562 -0.325441
vn -0.255868 -0.954864 -0.150884
vn 0.255868 -0.954864 -0.150884
vn -0.336123 -0.582218 0.740300
vn -0.336123 -0.582218 0.740300
vn -0.483079 -0.836706 0.257988
vn -0.483079 -0.836706 0.257988
vn -0.491008 -0.850429 -0.188896
vn -0.491008 -0.850429 -0.188896
vn -0.459781 -0.796393 -0.392886
vn -0.459781 -0.796393 -0.392886
vn -0.472768 -0.818892 -0.325433
vn -0.472768 -0.818892 -0.325433
vn -0.699013 -0.699013 -0.150874
vn -0.255868 -0.954864 -0.150884
vn -0.582218 -0.336123 0.740300
vn -0.582218 -0.336123 0.740300
vn -0.836706 -0.483079 0.257988
vn -0.836706 -0.483079 0.257988
vn -0.850429 -0.491008 -0.188896
vn -0.850429 -0.491008 -0.188896
vn -0.796393 -0.459781 -0.392886
vn -0.796393 -0.459781 -0.392886
vn -0.818892 -0.472768 -0.325433
vn -0.818892 -0.472768 -0.325433
vn -0.954864 -0.255868 -0.150884
vn -0.699013 -0.699013 -0.150874
vn -0.672293 0.000000 0.740285
vn -0.672293 0.000000 0.740285
vn -0.966145 0.000000 0.258001
vn 0.000000 0.000000 1.000000
vn 0.000000 0.000000 1.000000
vn -0.966145 0.000000 0.258001
vn -0.981996 0.000000 -0.188904
vn -0.981996 0.000000 -0.188904
vn -0.919583 0.000000 -0.392895
vn -0.919583 0.000000 -0.392895
vn -0.945562 0.000000 -0.325441

g polygon0
s 1
usemtl mat1
f 1/1/1 2/2/2 3/3/3
f 1/1/1 4/4/4 2/2/2
f 5/5/5 4/4/4 1/1/1
f 5/5/5 6/6/6 4/4/4
f 7/7/7 6/6/6 5/5/5
f 7/7/7 8/8/8 6/6/6
f 9/9/9 8/8/8 7/7/7
f 9/9/9 10/10/10 8/8/8
f 6/6/6 2/2/2 4/4/4
f 6/6/6 11/11/11 2/2/2
f 12/12/12 11/11/11 6/6/6
f 12/12/12 13/13/13 11/11/11
f 14/14/14 13/13/13 12/12/12
f 15/15/15 16/16/16 17/17/17
f 15/15/15 18/18/18 16/16/16
f 19/19/19 18/18/18 15/15/15
f 19/19/19 20/20/20 18/18/18
f 21/21/21 5/5/5 1/1/1
f 21/21/21 7/7/7 5/5/5
f 9/9/9 7/7/7 21/21/21
f 22/22/22 12/12/12 6/6/6
f 22/22/22 14/14/14 12/12/12
f 23/23/23 14/14/14 22/22/22
f 24/24/24 25/25/25 26/26/26
f 24/24/24 27/27/27 25/25/25
f 28/28/28 29/29/29 30/30/30
f 28/28/28 31/31/31 29/29/29
f 31/31/31 32/32/32 29/29/29
f 31/31/31 33/33/33 32/32/32
f 33/33/33 34/34/34 32/32/32
f 33/33/33 35/35/35 34/34/34
f 35/35/35 36/36/36 34/34/34
f 35/35/35 37/37/37 36/36/36
f 37/37/37 38/38/38 36/36/36
f 37/37/37 39/39/39 38/38/38
f 39/39/39 40/40/40 38/38/38
f 39/39/39 27/27/27 40/40/40
f 41/41/41 42/42/42 30/30/30
f 41/41/41 43/43/43 42/42/42
f 43/43/43 44/44/44 42/42/42
f 43/43/43 45/45/45 44/44/44
f 45/45/45 46/46/46 44/44/44
f 45/45/45 47/47/47 46/46/46
f 47/47/47 48/48/48 46/46/46
f 47/47/47 49/49/49 48/48/48
f 49/49/49 50/50/50 48/48/48
f 49/49/49 51/51/51 50/50/50
f 51/51/51 52/52/52 50/50/50
f 51/51/51 27/27/27 52/52/52
f 53/53/53 54/54/54 30/30/30
f 53/53/53 55/55/55 54/54/54
f 55/55/55 56/56/56 54/54/54
f 55/55/55 57/57/57 56/56/56
f 57/57/57 58/58/58 56/56/56
f 57/57/57 59/59/59 58/58/58
f 59/59/59 60/60/60 58/58/58
f 59/59/59 61/61/61 60/60/60
f 61/61/61 62/62/62 60/60/60
f 61/61/61 63/63/63 62/62/62
f 63/63/63 64/64/64 62/62/62
f 63/63/63 27/27/27 64/64/64
f 65/65/65 66/66/66 30/30/30
f 65/65/65 67/67/67 66/66/66
f 67/67/67 68/68/68 66/66/66
f 67/67/67 69/69/69 68/68/68
f 69/69/69 70/70/70 68/68/68
f 69/69/69 71/71/71 70/70/70
f 71/71/71 72/72/72 70/70/70
f 71/71/71 73/73/73 72/72/72
f 73/73/73 74/74/74 72/72/72
f 73/73/73 75/75/75 74/74/74
f 75/75/75 76/76/76 74/74/74
f 75/75/75 27/27/27 76/76/76
f 77/77/77 78/78/78 30/30/30
f 77/77/77 79/79/79 78/78/78
f 79/79/79 80/80/80 78/78/78
f 79/79/79 81/81/81 80/80/80
f 81/81/81 82/82/82 80/80/80
f 81/81/81 83/83/83 82/82/82
f 83/83/83 84/84/84 82/82/82
f 83/83/83 85/85/85 84/84/84
f 85/85/85 86/86/86 84/84/84
f 85/85/85 87/87/87 86/86/86
f 87/87/87 88/88/88 86/86/86
f 87/87/87 27/27/27 88/88/88
f 89/89/89 90/90/90 30/30/30
f 89/89/89 91/91/91 90/90/90
f 91/91/91 92/92/92 90/90/90
f 91/91/91 93/93/93 92/92/92
f 93/93/93 94/94/94 92/92/92
f 93/93/93 95/95/95 94/94/94
f 95/95/95 96/96/96 94/94/94
f 95/95/95 97/97/97 96/96/96
f 97/97/97 98/98/98 96/96/96
f 97/97/97 99/99/99 98/98/98
f 99/99/99 100/100/100 98/98/98
f 99/99/99 27/27/27 100/100/100
f 101/101/101 102/102/102 30/30/30
f 101/101/101 103/103/103 102/102/102
f 103/103/103 104/104/104 102/102/102
f 103/103/103 105/105/105 104/104/104
f 105/105/105 106/106/106 104/104/104
f 105/105/105 107/107/107 106/106/106
f 107/107/107 108/108/108 106/106/106
f 107/107/107 109/109/109 108/108/108
f 109/109/109 110/110/110 108/108/108
f 109/109/109 111/111/111 110/110/110
f 111/111/111 112/112/112 110/110/110
f 111/111/111 27/27/27 112/112/112
f 113/113/113 114/114/114 30/30/30
f 113/113/113 115/115/115 114/114/114
f 115/115/115 116/116/116 114/114/114
f 115/115/115 117/117/117 116/116/116
f 117/117/117 118/118/118 116/116/116
f 117/117/117 119/119/119 118/118/118
f 119/119/119 120/120/120 118/118/118
f 119/119/119 121/121/121 120/120/120
f 121/121/121 122/122/122 120/120/120
f 121/121/121 123/123/123 122/122/122
f 123/123/123 124/124/124 122/122/122
f 123/123/123 27/27/27 124/124/124
f 125/125/125 126/126/126 30/30/30
f 125/125/125 127/127/127 126/126/126
f 127/127/127 128/128/128 126/126/126
f 127/127/127 129/129/129 128/128/128
f 129/129/129 130/130/130 128/128/128
f 129/129/129 131/131/131 130/130/130
f 131/131/131 132/132/132 130/130/130
f 131/131/131 133/133/133 132/132/132
f 133/133/133 134/134/134 132/132/132
f 133/133/133 135/135/135 134/134/134
f 135/135/135 136/136/136 134/134/134
f 135/135/135 27/27/27 136/136/136
f 137/137/137 138/138/138 30/30/30
f 137/137/137 139/139/139 138/138/138
f 139/139/139 140/140/140 138/138/138
f 139/139/139 141/141/141 140/140/140
f 141/141/141 142/142/142 140/140/140
f 141/141/141 143/143/143 142/142/142
f 143/143/143 144/144/144 142/142/142
f 143/143/143 145/145/145 144/144/144
f 145/145/145 146/146/146 144/144/144
f 145/145/145 147/147/147 146/146/146
f 147/147/147 148/148/148 146/146/146
f 147/147/147 27/27/27 148/148/148
f 149/149/149 150/150/150 30/30/30
f 149/149/149 151/151/151 150/150/150
f 151/151/151 152/152/152 150/150/150
f 151/151/151 153/153/153 152/152/152
f 153/153/153 154/154/154 152/152/152
f 153/153/153 155/155/155 154/154/154
f 155/155/155 156/156/156 154/154/154
f 155/155/155 157/157/157 156/156/156
f 157/157/157 158/158/158 156/156/156
f 157/157/157 159/159/159 158/158/158
f 159/159/159 160/160/160 158/158/158
f 159/159/159 27/27/27 160/160/160
f 161/161/161 162/162/162 30/30/30
f 161/161/161 163/163/163 162/162/162
f 164/164/164 20/20/20 165/165/165
f 164/164/164 18/18/18 20/20/20
f 163/163/163 166/166/166 162/162/162
f 163/163/163 167/167/167 166/166/166
f 167/167/167 168/168/168 166/166/166
f 167/167/167 169/169/169 168/168/168
f 11/11/11 3/3/3 2/2/2
f 11/11/11 13/13/13 3/3/3
f 169/169/169 170/170/170 168/168/168
f 169/169/169 171/171/171 170/170/170
f 171/171/171 26/26/26 170/170/170
f 171/171/171 24/24/24 26/26/26
f 8/8/8 22/22/22 6/6/6
f 8/8/8 10/10/10 22/22/22
f 23/23/23 22/22/22 10/10/10

