mtllib enm_pawn_shp_Shoulder2_L.mtl

v 1.749023 0.490234 -1.168701
v -0.143555 -0.505005 -1.866089
v -0.278931 0.809082 -1.348755
v 2.104492 -0.930298 -1.497314
v 2.559082 -0.930298 0.000000
v 1.749023 0.490234 1.168701
v 2.104492 -0.930298 1.497314
v -0.143555 -0.505005 1.866089
v -0.206665 1.154297 0.000000
v 1.749023 0.490234 -1.168701
v -0.278931 0.809082 -1.348755
v 1.749023 0.490234 1.168701
v -0.278931 0.809082 1.348755
v -0.278931 0.809082 1.348755

vt 0.728821 0.992706
vt 0.618042 0.816925
vt 0.618042 0.992706
vt 0.728821 0.816925
vt 0.806274 0.816925
vt 0.883728 0.992706
vt 0.883728 0.816925
vt 0.994507 0.816925
vt 0.542877 0.990479
vt 0.489105 0.859436
vt 0.480835 0.990479
vt 0.596649 0.859436
vt 0.604950 0.990479
vt 0.994507 0.992706

vn 0.553351 0.663277 -0.503851
vn 0.165040 0.335939 -0.927312
vn 0.174623 0.751164 -0.636600
vn 0.676442 0.322444 -0.662160
vn 0.920654 0.390381 0.000000
vn 0.553351 0.663277 0.503851
vn 0.676442 0.322444 0.662160
vn 0.165040 0.335939 0.927312
vn 0.226994 0.973896 0.000000
vn 0.553351 0.663277 -0.503851
vn 0.174623 0.751164 -0.636600
vn 0.553351 0.663277 0.503851
vn 0.174623 0.751164 0.636600
vn 0.174623 0.751164 0.636600

g polygon0
s 1
usemtl mat1
f 1/1/1 2/2/2 3/3/3
f 1/1/1 4/4/4 2/2/2
f 5/5/5 4/4/4 1/1/1
f 6/6/6 5/5/5 1/1/1
f 6/6/6 7/7/7 5/5/5
f 8/8/8 7/7/7 6/6/6
f 9/9/9 10/10/10 11/11/11
f 9/9/9 12/12/12 10/10/10
f 13/13/13 12/12/12 9/9/9
f 8/8/8 6/6/6 14/14/14

