mtllib enm_pawn_qua_Weapon_R.mtl

v 0.077948 1.378517 26.360718
v 0.000000 1.882070 28.788925
v 0.047802 1.166984 26.189772
v 0.334037 1.527354 23.110924
v 0.222692 0.856087 23.110924
v 0.334037 1.064951 17.010925
v 0.222692 0.415367 17.010925
v 0.334037 0.805331 4.284973
v 0.222692 0.160414 4.284973
v 0.000000 0.845434 26.718029
v -0.058649 1.165277 26.189102
v 0.000000 -0.043239 23.110924
v -0.089216 1.379461 26.360575
v 0.000000 1.882070 28.788925
v -0.334038 1.527354 23.110924
v 0.000000 2.388652 29.075453
v -1.491189 -2.083312 4.443375
v -2.412795 0.753099 4.443375
v -2.412795 -0.814830 4.443375
v -1.491189 2.021581 4.443375
v 0.000000 -2.567828 4.443375
v 0.000000 2.506098 4.443376
v 1.491188 2.021582 4.443375
v -1.491189 2.021581 3.705764
v -2.412795 -0.814830 3.705764
v -2.412795 0.753099 3.705764
v -1.491189 -2.083312 3.705764
v 0.000000 2.506098 3.705764
v 0.000000 -2.567828 3.705764
v 1.491190 -2.083311 3.705764
v 0.582291 0.805982 3.746527
v 0.414161 0.660748 -5.253456
v -0.582291 0.805982 3.746527
v 0.414162 -0.660746 -5.253456
v 0.582291 -0.805983 3.746527
v -0.414161 -0.660746 -5.253456
v -0.582291 -0.805983 3.746527
v -0.111346 -0.134224 17.010925
v 0.000000 -0.583824 17.010925
v -0.111346 0.332556 23.110924
v -0.334038 1.064951 17.010925
v -0.222692 0.415367 17.010925
v -0.222692 0.856087 23.110924
v -0.222692 0.160414 4.284973
v -0.334037 0.805331 4.284973
v 0.000000 -0.043239 23.110924
v 0.111346 0.332556 23.110924
v 0.000000 0.845434 26.718029
v 2.412795 -0.814830 4.443375
v 2.412795 0.753100 4.443375
v 1.491190 -2.083311 4.443375
v 2.412795 0.753100 3.705764
v 2.412795 -0.814830 3.705764
v 1.491188 2.021582 3.705764
v -0.414161 -0.660746 -5.253456
v -0.582291 -0.805983 3.746527
v -0.414162 0.660748 -5.253456
v 0.000000 -0.843444 4.284973
v -0.111346 -0.389178 4.284973
v 0.111346 -0.389178 4.284973
v 0.000000 -0.583824 17.010925
v 0.000000 -0.843444 4.284973
v 0.111346 -0.134224 17.010925
v 0.334037 1.527354 23.110924
v -0.334038 1.527354 23.110924
v 0.000000 2.388652 29.075453
v 0.334037 1.064951 17.010925
v -0.334038 1.064951 17.010925
v 0.334037 0.805331 4.284973
v -1.491189 2.021581 3.705764
v -2.412795 0.753099 4.443375
v -1.491189 2.021581 4.443375
v -2.412795 0.753099 3.705764
v -2.412795 -0.814830 4.443375
v -2.412795 -0.814830 3.705764
v -1.491189 -2.083312 4.443375
v -1.491189 -2.083312 3.705764
v 0.000000 -2.567828 4.443375
v 0.000000 -2.567828 3.705764
v 1.491190 -2.083311 4.443375
v 1.491190 -2.083311 3.705764
v 2.412795 -0.814830 4.443375
v 2.412795 -0.814830 3.705764
v 2.412795 0.753100 4.443375
v 2.412795 0.753100 3.705764
v 1.491188 2.021582 4.443375
v 1.491188 2.021582 3.705764
v 0.000000 2.506098 4.443376
v 0.000000 2.506098 3.705764
v -1.491189 2.021581 4.443375
v -1.491189 2.021581 3.705764
v 0.414162 -0.660746 -5.253456
v 0.414161 0.660748 -5.253456
v 0.000000 2.388652 29.075453
v -0.334037 0.805331 4.284973

vt 0.060913 0.869385
vt 0.075958 0.947418
vt 0.054291 0.866943
vt 0.085022 0.749390
vt 0.053497 0.749146
vt 0.085022 0.507843
vt 0.054077 0.507751
vt 0.085022 0.004669
vt 0.054291 0.004639
vt 0.037842 0.892700
vt 0.054169 0.866699
vt 0.010864 0.749390
vt 0.062897 0.870087
vt 0.075989 0.952179
vt 0.085022 0.749390
vt 0.103180 0.992676
vt 0.641846 0.800690
vt 0.605804 0.919006
vt 0.604309 0.853485
vt 0.639862 0.973297
vt 0.702881 0.780121
vt 0.702881 0.994843
vt 0.764435 0.975769
vt 0.764435 0.975769
vt 0.800995 0.856964
vt 0.798981 0.923981
vt 0.764435 0.803162
vt 0.702881 0.994843
vt 0.702881 0.780121
vt 0.641846 0.800690
vt 0.246307 0.234222
vt 0.246643 0.032898
vt 0.294983 0.234222
vt 0.182007 0.032898
vt 0.182373 0.234222
vt 0.133728 0.032898
vt 0.135773 0.234253
vt 0.027740 0.507751
vt 0.005981 0.507843
vt 0.028900 0.749176
vt 0.085022 0.507843
vt 0.054077 0.507751
vt 0.053619 0.749146
vt 0.053894 0.004639
vt 0.085022 0.004669
vt 0.010864 0.749390
vt 0.028748 0.749176
vt 0.037842 0.892700
vt 0.800995 0.856964
vt 0.798981 0.923981
vt 0.764435 0.803162
vt 0.605804 0.919006
vt 0.604309 0.853485
vt 0.639862 0.973297
vt 0.356537 0.034180
vt 0.353912 0.234222
vt 0.293182 0.033752
vt 0.005981 0.004669
vt 0.027954 0.004639
vt 0.027954 0.004639
vt 0.005981 0.507843
vt 0.005981 0.004669
vt 0.027740 0.507751
vt 0.085022 0.749390
vt 0.118988 0.749390
vt 0.103180 0.992676
vt 0.085022 0.507843
vt 0.118988 0.507843
vt 0.085022 0.004669
vt 0.132782 0.992157
vt 0.186554 0.943878
vt 0.186554 0.992157
vt 0.132782 0.943878
vt 0.186554 0.884186
vt 0.132782 0.884186
vt 0.186554 0.835907
vt 0.132782 0.835907
vt 0.186554 0.779114
vt 0.132782 0.779114
vt 0.186554 0.722351
vt 0.132782 0.722351
vt 0.186554 0.674072
vt 0.132782 0.674072
vt 0.186554 0.614380
vt 0.132782 0.614380
vt 0.186554 0.566071
vt 0.132782 0.566071
vt 0.186554 0.517792
vt 0.132782 0.517792
vt 0.186554 0.458099
vt 0.132782 0.458099
vt 0.356598 0.002838
vt 0.289948 0.002838
vt 0.103180 0.992676
vt 0.118988 0.004669

vn 0.979344 -0.189265 0.071165
vn 0.996911 -0.050538 0.060121
vn 0.986750 -0.153075 0.053772
vn 0.986042 -0.160892 0.042847
vn 0.981529 -0.186284 0.043580
vn 0.985624 -0.168767 0.007935
vn 0.982860 -0.184145 0.008728
vn 0.985420 -0.170106 0.003418
vn 0.982811 -0.184575 0.003723
vn -0.990412 -0.129882 0.047058
vn -0.985224 -0.165160 0.045349
vn -0.959843 -0.275880 0.050904
vn -0.986687 -0.152404 0.056762
vn -0.996851 -0.050172 0.061403
vn -0.986281 -0.159853 0.041199
vn -0.997553 -0.034424 0.060852
vn 0.000000 0.000000 1.000000
vn 0.000000 0.000000 1.000000
vn 0.000000 0.000000 1.000000
vn 0.000000 0.000000 1.000000
vn 0.000000 0.000000 1.000000
vn 0.000000 0.000000 1.000000
vn 0.000000 0.000000 1.000000
vn 0.000000 0.000000 -1.000000
vn 0.000000 0.000000 -1.000000
vn 0.000000 0.000000 -1.000000
vn 0.000000 0.000000 -1.000000
vn 0.000000 0.000000 -1.000000
vn 0.000000 0.000000 -1.000000
vn 0.000000 0.000000 -1.000000
vn 0.707472 0.706313 -0.024598
vn 0.572268 0.573184 -0.586489
vn -0.707472 0.706313 -0.024598
vn 0.572268 -0.573184 -0.586489
vn 0.707472 -0.706313 -0.024598
vn -0.572268 -0.573184 -0.586489
vn -0.707472 -0.706313 -0.024598
vn -0.975356 -0.220340 0.011414
vn -0.970599 -0.240361 0.012818
vn -0.967415 -0.247927 0.051392
vn -0.985624 -0.168767 0.007935
vn -0.982860 -0.184145 0.008728
vn -0.981605 -0.186275 0.041869
vn -0.982825 -0.184505 0.003723
vn -0.985420 -0.170106 0.003479
vn 0.960079 -0.274840 0.052063
vn 0.967339 -0.247862 0.053100
vn 0.995465 -0.087767 0.036681
vn 0.000000 0.000000 1.000000
vn 0.000000 0.000000 1.000000
vn 0.000000 0.000000 1.000000
vn 0.000000 0.000000 -1.000000
vn 0.000000 0.000000 -1.000000
vn 0.000000 0.000000 -1.000000
vn -0.572268 -0.573184 -0.586489
vn -0.707472 -0.706313 -0.024598
vn -0.572268 0.573184 -0.586489
vn -0.971231 -0.238093 0.004761
vn -0.975800 -0.218621 0.004394
vn 0.975797 -0.218634 0.004395
vn 0.970600 -0.240361 0.012757
vn 0.971244 -0.238035 0.004883
vn 0.975356 -0.220340 0.011414
vn 0.000000 0.994074 -0.108703
vn 0.000000 0.994074 -0.108703
vn 0.000000 0.989731 -0.142942
vn 0.000000 0.998846 -0.048035
vn 0.000000 0.998846 -0.048035
vn 0.000000 0.999792 -0.020385
vn -0.587772 0.809026 0.000000
vn -0.951055 0.309023 0.000000
vn -0.587772 0.809026 0.000000
vn -0.951055 0.309023 0.000000
vn -0.951055 -0.309023 0.000000
vn -0.951055 -0.309023 0.000000
vn -0.587772 -0.809026 0.000000
vn -0.587772 -0.809026 0.000000
vn 0.000000 -1.000000 0.000000
vn 0.000000 -1.000000 0.000000
vn 0.587772 -0.809026 0.000000
vn 0.587772 -0.809026 0.000000
vn 0.951055 -0.309023 0.000000
vn 0.951055 -0.309023 0.000000
vn 0.951055 0.309023 0.000000
vn 0.951055 0.309023 0.000000
vn 0.587772 0.809026 0.000000
vn 0.587772 0.809026 0.000000
vn 0.000000 1.000000 0.000000
vn 0.000000 1.000000 0.000000
vn -0.587772 0.809026 0.000000
vn -0.587772 0.809026 0.000000
vn 0.572268 -0.573184 -0.586489
vn 0.572268 0.573184 -0.586489
vn 0.997553 -0.034424 0.060852
vn 0.000000 0.999792 -0.020385

g polygon0
s 1
usemtl mat2
f 1/1/1 2/2/2 3/3/3
f 1/1/1 4/4/4 2/2/2
f 5/5/5 4/4/4 1/1/1
f 5/5/5 6/6/6 4/4/4
f 7/7/7 6/6/6 5/5/5
f 7/7/7 8/8/8 6/6/6
f 9/9/9 8/8/8 7/7/7
f 10/10/10 11/11/11 12/12/12
f 10/10/10 13/13/13 11/11/11
f 14/14/14 13/13/13 10/10/10
f 14/14/14 15/15/15 13/13/13
f 16/16/16 15/15/15 14/14/14
f 17/17/17 18/18/18 19/19/19
f 17/17/17 20/20/20 18/18/18
f 21/21/21 20/20/20 17/17/17
f 21/21/21 22/22/22 20/20/20
f 23/23/23 22/22/22 21/21/21
f 24/24/24 25/25/25 26/26/26
f 24/24/24 27/27/27 25/25/25
f 28/28/28 27/27/27 24/24/24
f 28/28/28 29/29/29 27/27/27
f 30/30/30 29/29/29 28/28/28
f 31/31/31 32/32/32 33/33/33
f 31/31/31 34/34/34 32/32/32
f 35/35/35 34/34/34 31/31/31
f 35/35/35 36/36/36 34/34/34
f 37/37/37 36/36/36 35/35/35
f 12/12/12 38/38/38 39/39/39
f 12/12/12 40/40/40 38/38/38
f 11/11/11 40/40/40 12/12/12
f 41/41/41 42/42/42 43/43/43
f 41/41/41 44/44/44 42/42/42
f 45/45/45 44/44/44 41/41/41
f 3/3/3 46/46/46 47/47/47
f 3/3/3 48/48/48 46/46/46
f 2/2/2 48/48/48 3/3/3
f 23/23/23 49/49/49 50/50/50
f 23/23/23 51/51/51 49/49/49
f 21/21/21 51/51/51 23/23/23
f 30/30/30 52/52/52 53/53/53
f 30/30/30 54/54/54 52/52/52
f 28/28/28 54/54/54 30/30/30
f 33/33/33 55/55/55 56/56/56
f 33/33/33 57/57/57 55/55/55
f 32/32/32 57/57/57 33/33/33
f 58/58/58 38/38/38 59/59/59
f 58/58/58 39/39/39 38/38/38
f 15/15/15 43/43/43 13/13/13
f 15/15/15 41/41/41 43/43/43
f 60/60/60 61/61/61 62/62/62
f 60/60/60 63/63/63 61/61/61
f 63/63/63 46/46/46 61/61/61
f 63/63/63 47/47/47 46/46/46
f 64/64/64 65/65/65 66/66/66
f 64/64/64 67/67/67 65/65/65
f 67/67/67 68/68/68 65/65/65
f 67/67/67 69/69/69 68/68/68
f 70/70/70 71/71/71 72/72/72
f 70/70/70 73/73/73 71/71/71
f 73/73/73 74/74/74 71/71/71
f 73/73/73 75/75/75 74/74/74
f 75/75/75 76/76/76 74/74/74
f 75/75/75 77/77/77 76/76/76
f 77/77/77 78/78/78 76/76/76
f 77/77/77 79/79/79 78/78/78
f 79/79/79 80/80/80 78/78/78
f 79/79/79 81/81/81 80/80/80
f 81/81/81 82/82/82 80/80/80
f 81/81/81 83/83/83 82/82/82
f 83/83/83 84/84/84 82/82/82
f 83/83/83 85/85/85 84/84/84
f 85/85/85 86/86/86 84/84/84
f 85/85/85 87/87/87 86/86/86
f 87/87/87 88/88/88 86/86/86
f 87/87/87 89/89/89 88/88/88
f 89/89/89 90/90/90 88/88/88
f 89/89/89 91/91/91 90/90/90
f 92/92/92 57/57/57 93/93/93
f 92/92/92 55/55/55 57/57/57
f 94/94/94 2/2/2 4/4/4
f 95/95/95 68/68/68 69/69/69

v -0.222692 0.856087 23.110924
v -0.058649 1.165277 26.189102
v -0.089216 1.379461 26.360575
v -0.111346 0.332556 23.110924
v -0.222692 0.415367 17.010925
v -0.111346 -0.134224 17.010925
v -0.111346 -0.389178 4.284973
v 0.047802 1.166984 26.189772
v 0.222692 0.856087 23.110924
v 0.077948 1.378517 26.360718
v 0.111346 0.332556 23.110924
v 0.222692 0.415367 17.010925
v 0.111346 -0.134224 17.010925
v 0.222692 0.160414 4.284973
v 0.111346 -0.389178 4.284973
v -0.222692 0.160414 4.284973

vt 0.053619 0.749146
vt 0.054169 0.866699
vt 0.062897 0.870087
vt 0.028900 0.749176
vt 0.054077 0.507751
vt 0.027740 0.507751
vt 0.027954 0.004639
vt 0.054291 0.866943
vt 0.053497 0.749146
vt 0.060913 0.869385
vt 0.028748 0.749176
vt 0.054077 0.507751
vt 0.027740 0.507751
vt 0.054291 0.004639
vt 0.027954 0.004639
vt 0.053894 0.004639

vn 7924809334889683200000000000000000.000000 7840161470883427500000000000000000.000000 -1.#QNAN0
vn 7924809334889683200000000000000000.000000 7840161470883427500000000000000000.000000 -1.#QNAN0
vn 7924809334889683200000000000000000.000000 7840161470883427500000000000000000.000000 -1.#QNAN0
vn 7900660838543343300000000000000000.000000 0.000000 0.000000
vn 7900660838543343300000000000000000.000000 0.000000 0.000000
vn 7900660838543343300000000000000000.000000 0.000000 0.000000
vn 7900660838543343300000000000000000.000000 0.000000 0.000000
vn 7924809334889683200000000000000000.000000 7840161470883427500000000000000000.000000 -1.#QNAN0
vn 7924809334889683200000000000000000.000000 7840161470883427500000000000000000.000000 -1.#QNAN0
vn 7924809334889683200000000000000000.000000 7840161470883427500000000000000000.000000 -1.#QNAN0
vn 7900660838543343300000000000000000.000000 0.000000 0.000000
vn 7924809334889683200000000000000000.000000 7840161470883427500000000000000000.000000 -1.#QNAN0
vn 7900660838543343300000000000000000.000000 0.000000 0.000000
vn 7924809334889683200000000000000000.000000 7840161470883427500000000000000000.000000 -1.#QNAN0
vn 7924809334889683200000000000000000.000000 7840161470883427500000000000000000.000000 -1.#QNAN0
vn 7924809334889683200000000000000000.000000 7840161470883427500000000000000000.000000 -1.#QNAN0

g polygon1
s 1
usemtl mat1
f 96/96/96 97/97/97 98/98/98
f 96/96/96 99/99/99 97/97/97
f 100/100/100 99/99/99 96/96/96
f 100/100/100 101/101/101 99/99/99
f 102/102/102 101/101/101 100/100/100
f 103/103/103 104/104/104 105/105/105
f 103/103/103 106/106/106 104/104/104
f 106/106/106 107/107/107 104/104/104
f 106/106/106 108/108/108 107/107/107
f 109/109/109 108/108/108 110/110/110
f 109/109/109 107/107/107 108/108/108
f 111/111/111 102/102/102 100/100/100

