mtllib enm_pawn_rso_Spine.mtl

v -2.656250 1.927734 5.694092
v -1.601807 3.036377 5.213867
v -3.740234 2.365234 5.168945
v 0.000000 2.813232 5.801758
v 0.000000 2.338867 6.133789
v 2.656250 1.927734 5.694092
v 1.035156 0.965820 6.324707
v 0.000000 2.875244 6.204346
v 0.000000 2.195801 6.201172
v 0.504883 2.298340 6.053223
v -0.504883 2.298340 6.053223
v -0.511230 2.671143 5.938965
v -2.407227 1.363281 6.075928
v -2.694580 2.671143 5.938965
v -2.407227 3.341309 4.974121
v -0.504883 2.943359 5.694092
v 0.000000 3.143555 5.673096
v 0.504883 2.943359 5.694092
v -1.035156 0.965820 6.324707
v 0.000000 0.965820 6.597656
v 0.000000 -0.352783 6.186768
v 0.511230 2.671143 5.938965
v 2.407227 3.341309 4.974121
v 2.694580 2.671143 5.938965
v 2.407227 1.363281 6.075928
v 1.601807 3.036377 5.213867
v 3.740234 2.365234 5.168945

vt 0.673218 0.776337
vt 0.731598 0.865509
vt 0.615021 0.865173
vt 0.848206 0.864502
vt 0.848206 0.793304
vt 0.673218 0.776337
vt 0.783752 0.639282
vt 0.590149 0.373962
vt 0.649841 0.373962
vt 0.633240 0.305542
vt 0.633240 0.305542
vt 0.594543 0.304688
vt 0.716736 0.047821
vt 0.594543 0.008911
vt 0.486115 0.047821
vt 0.558014 0.305542
vt 0.539307 0.373962
vt 0.558014 0.305542
vt 0.783752 0.639282
vt 0.848206 0.629883
vt 0.848206 0.502472
vt 0.594543 0.304688
vt 0.486115 0.047821
vt 0.594543 0.008911
vt 0.716736 0.047821
vt 0.731598 0.865509
vt 0.615021 0.865173

vn -0.197208 0.489022 0.849686
vn -0.210016 0.549911 0.808388
vn -0.184693 0.533326 0.825501
vn 0.000000 0.572015 0.820243
vn 0.000000 0.447995 0.894036
vn 0.197208 0.489022 0.849686
vn 0.230838 0.141420 0.962660
vn 0.000000 0.527896 0.849309
vn 0.000000 -0.004517 0.999990
vn 0.264230 0.205878 0.942230
vn -0.264230 0.205878 0.942230
vn -0.335502 0.460927 0.821575
vn -0.015197 0.125913 0.991925
vn 0.000000 0.505365 0.862905
vn -0.015198 0.806934 0.590446
vn -0.296445 0.702141 0.647393
vn 0.000000 0.892564 0.450921
vn 0.296445 0.702141 0.647393
vn -0.230838 0.141420 0.962660
vn 0.000000 0.011352 0.999936
vn 0.000000 -0.297489 0.954725
vn 0.335502 0.460927 0.821575
vn 0.015198 0.806934 0.590446
vn 0.000000 0.505365 0.862905
vn 0.015197 0.125913 0.991925
vn 0.210016 0.549911 0.808388
vn 0.184693 0.533326 0.825501

g polygon0
s 1
usemtl mat1
f 1/1/1 2/2/2 3/3/3
f 1/1/1 4/4/4 2/2/2
f 5/5/5 4/4/4 1/1/1
f 5/5/5 6/6/6 4/4/4
f 7/7/7 6/6/6 5/5/5
f 8/8/8 9/9/9 10/10/10
f 8/8/8 11/11/11 9/9/9
f 12/12/12 11/11/11 8/8/8
f 12/12/12 13/13/13 11/11/11
f 14/14/14 13/13/13 12/12/12
f 12/12/12 15/15/15 14/14/14
f 12/12/12 16/16/16 15/15/15
f 8/8/8 16/16/16 12/12/12
f 8/8/8 17/17/17 16/16/16
f 18/18/18 17/17/17 8/8/8
f 19/19/19 5/5/5 1/1/1
f 19/19/19 20/20/20 5/5/5
f 21/21/21 20/20/20 19/19/19
f 21/21/21 7/7/7 20/20/20
f 22/22/22 18/18/18 8/8/8
f 22/22/22 23/23/23 18/18/18
f 24/24/24 23/23/23 22/22/22
f 22/22/22 25/25/25 24/24/24
f 22/22/22 10/10/10 25/25/25
f 8/8/8 10/10/10 22/22/22
f 26/26/26 6/6/6 27/27/27
f 26/26/26 4/4/4 6/6/6
f 5/5/5 20/20/20 7/7/7

