mtllib enm_pawn_qua_Spine.mtl

v 2.586914 2.277588 5.605469
v 3.579102 2.968506 4.463135
v 2.360596 2.968506 5.235352
v 3.805420 2.277588 4.833252
v 2.809082 1.032959 6.010010
v 4.027588 1.032959 5.237793
v -3.579102 2.968506 4.463135
v -2.586914 2.277588 5.605469
v -2.360596 2.968506 5.235352
v -3.805420 2.277588 4.833252
v -2.809082 1.032959 6.010010
v -4.027588 1.032959 5.237793

vt 0.535461 0.151642
vt 0.366272 0.243439
vt 0.535461 0.243439
vt 0.366272 0.151642
vt 0.535461 0.000641
vt 0.366272 0.000641
vt 0.366272 0.243439
vt 0.535461 0.151642
vt 0.535461 0.243439
vt 0.366272 0.151642
vt 0.535461 0.000641
vt 0.366272 0.000641

vn 0.480421 0.440931 0.758139
vn 0.453308 0.531800 0.715333
vn 0.453308 0.531800 0.715333
vn 0.479984 0.442691 0.757390
vn 0.501958 0.347110 0.792182
vn 0.501958 0.347110 0.792182
vn -0.453308 0.531800 0.715333
vn -0.480421 0.440931 0.758139
vn -0.453308 0.531800 0.715333
vn -0.479984 0.442691 0.757390
vn -0.501958 0.347110 0.792182
vn -0.501958 0.347110 0.792182

g polygon0
s 1
usemtl mat1
f 1/1/1 2/2/2 3/3/3
f 1/1/1 4/4/4 2/2/2
f 5/5/5 4/4/4 1/1/1
f 5/5/5 6/6/6 4/4/4
f 7/7/7 8/8/8 9/9/9
f 7/7/7 10/10/10 8/8/8
f 11/11/11 10/10/10 12/12/12
f 11/11/11 8/8/8 10/10/10

