mtllib enm_pawn_ast_Weapon_R.mtl

v 1.281250 0.000000 23.104492
v -0.846680 -3.183594 23.104492
v 0.846680 -3.183594 23.104492
v -1.281250 0.000000 23.104492
v 0.846680 3.183594 23.104492
v -0.846680 3.183594 23.104492
v -1.281250 0.000000 4.158203
v 0.846680 -2.625977 4.158203
v -0.846680 -2.625977 4.158203
v 1.281250 0.000000 4.158203
v -0.846680 2.625977 4.158203
v 0.846680 2.625977 4.158203
v -0.640625 0.000000 -5.163086
v 0.637695 0.000000 -5.163086
v -0.000977 -0.738281 -5.163086
v -0.000977 0.738281 -5.163086
v -0.798828 0.000000 4.254883
v -0.000977 0.920898 4.254883
v -0.745117 -2.865234 13.473633
v 0.000000 -3.635742 14.365234
v 0.000000 -2.884766 14.263672
v -0.642578 -3.882813 13.781250
v 0.000000 -4.128906 13.197266
v -0.745117 -3.079102 22.030273
v 0.000000 -3.855469 22.921875
v 0.000000 -3.098633 22.820313
v -0.642578 -4.102539 22.337891
v 0.000000 -4.348633 21.753906
v 0.745117 2.865234 13.473633
v 0.000000 3.635742 14.365234
v 0.000000 2.884766 14.263672
v 0.642578 3.882813 13.781250
v 0.000000 4.128906 13.197266
v 0.000000 5.507813 15.652344
v -0.523438 4.366211 14.125000
v 0.000000 4.088867 14.591797
v 0.000000 4.643555 13.657227
v 0.524414 4.366211 14.125000
v -0.745117 2.865234 13.473633
v -0.642578 3.882813 13.781250
v 0.000000 2.845703 12.684570
v -0.745117 -2.991211 17.789063
v 0.000000 -3.765625 18.680664
v 0.000000 -3.010742 18.579102
v -0.642578 -4.011719 18.095703
v 0.000000 -4.258789 17.511719
v 0.000000 4.258789 17.511719
v -0.745117 2.991211 17.789063
v -0.642578 4.011719 18.095703
v 0.000000 2.971680 16.999023
v 0.745117 2.991211 17.789063
v 0.000000 3.765625 18.680664
v 0.000000 3.010742 18.579102
v 0.642578 4.011719 18.095703
v 0.000000 5.637695 19.966797
v -0.523438 4.495117 18.439453
v 0.000000 4.217773 18.907227
v 0.000000 4.772461 17.971680
v 0.524414 4.495117 18.439453
v 0.000000 4.348633 21.753906
v -0.745117 3.079102 22.030273
v -0.642578 4.102539 22.337891
v 0.000000 3.059570 21.241211
v 0.745117 3.079102 22.030273
v 0.000000 3.855469 22.921875
v 0.000000 3.098633 22.820313
v 0.642578 4.102539 22.337891
v 0.000000 5.727539 24.208984
v -0.523438 4.585938 22.681641
v 0.000000 4.308594 23.148438
v 0.000000 4.863281 22.213867
v 0.524414 4.585938 22.681641
v -0.000977 -0.920898 4.254883
v 0.795898 0.000000 4.254883
v -0.523438 -4.585938 22.681641
v 0.000000 -5.727539 24.208984
v 0.000000 -4.308594 23.148438
v 0.000000 -4.863281 22.213867
v 0.524414 -4.585938 22.681641
v 0.000000 -4.308594 23.148438
v 0.000000 3.635742 14.365234
v 0.000000 2.884766 14.263672
v 0.000000 3.765625 18.680664
v 0.000000 3.010742 18.579102
v 0.000000 -2.845703 12.684570
v 0.745117 -2.865234 13.473633
v 0.000000 -3.635742 14.365234
v 0.000000 -2.884766 14.263672
v 0.642578 -3.882813 13.781250
v -0.523438 -4.366211 14.125000
v 0.000000 -5.507813 15.652344
v 0.000000 -4.088867 14.591797
v 0.000000 -4.643555 13.657227
v 0.000000 3.855469 22.921875
v 0.000000 3.098633 22.820313
v 0.524414 -4.366211 14.125000
v 0.000000 -4.088867 14.591797
v 0.000000 -2.971680 16.999023
v 0.745117 -2.991211 17.789063
v 0.000000 -3.765625 18.680664
v 0.000000 -3.010742 18.579102
v 0.642578 -4.011719 18.095703
v 0.846680 -2.625977 4.158203
v 1.281250 0.000000 23.104492
v 0.846680 -3.183594 23.104492
v 1.281250 0.000000 4.158203
v -0.523438 -4.495117 18.439453
v 0.000000 -5.637695 19.966797
v 0.000000 -4.217773 18.907227
v 0.000000 -4.772461 17.971680
v 0.524414 -4.495117 18.439453
v 0.000000 -4.217773 18.907227
v -0.846680 -3.183594 23.104492
v -1.281250 0.000000 4.158203
v -0.846680 -2.625977 4.158203
v -1.281250 0.000000 23.104492
v 0.846680 -2.625977 4.158203
v -0.846680 -3.183594 23.104492
v -0.846680 -2.625977 4.158203
v 0.846680 -3.183594 23.104492
v 0.846680 2.625977 4.158203
v 0.846680 3.183594 23.104492
v -0.846680 3.183594 23.104492
v -0.846680 2.625977 4.158203
v 0.846680 2.625977 4.158203
v -0.846680 3.183594 23.104492
v 0.846680 3.183594 23.104492
v -0.846680 2.625977 4.158203
v 0.000000 -3.059570 21.241211
v 0.745117 -3.079102 22.030273
v 0.000000 -3.855469 22.921875
v 0.000000 -3.098633 22.820313
v 0.642578 -4.102539 22.337891
v 0.637695 0.000000 -5.163086
v 0.000000 4.088867 14.591797
v 0.000000 4.217773 18.907227
v 0.000000 4.308594 23.148438

vt 0.007172 0.898285
vt 0.274536 0.952606
vt 0.274536 0.898285
vt 0.007172 0.992096
vt 0.274536 0.898285
vt 0.274536 0.952606
vt 0.007172 0.015137
vt 0.274536 0.107849
vt 0.274536 0.054382
vt 0.007172 0.107849
vt 0.274536 0.054382
vt 0.274536 0.107849
vt 0.553802 0.050232
vt 0.485931 0.012634
vt 0.485931 0.050232
vt 0.485931 0.050232
vt 0.553802 0.425751
vt 0.485931 0.425751
vt 0.576385 0.940186
vt 0.544769 0.976013
vt 0.574158 0.994751
vt 0.544769 0.920441
vt 0.544769 0.845398
vt 0.576385 0.940186
vt 0.544769 0.976013
vt 0.574158 0.994751
vt 0.544769 0.920441
vt 0.544769 0.845398
vt 0.576080 0.767242
vt 0.544769 0.708282
vt 0.570648 0.700531
vt 0.544769 0.783936
vt 0.544769 0.845398
vt 0.408539 0.845398
vt 0.527466 0.891724
vt 0.527466 0.946503
vt 0.527466 0.845398
vt 0.527466 0.792053
vt 0.576385 0.940186
vt 0.544769 0.920441
vt 0.579926 0.845398
vt 0.576385 0.940186
vt 0.544769 0.976013
vt 0.574158 0.994751
vt 0.544769 0.920441
vt 0.544769 0.845398
vt 0.544769 0.845398
vt 0.576385 0.940186
vt 0.544769 0.920441
vt 0.579926 0.845398
vt 0.576080 0.767242
vt 0.544769 0.708282
vt 0.570648 0.700531
vt 0.544769 0.783936
vt 0.408539 0.845398
vt 0.527466 0.891724
vt 0.527466 0.946503
vt 0.527466 0.845398
vt 0.527466 0.792053
vt 0.544769 0.845398
vt 0.576385 0.940186
vt 0.544769 0.920441
vt 0.579926 0.845398
vt 0.576080 0.767242
vt 0.544769 0.708282
vt 0.570648 0.700531
vt 0.544769 0.783936
vt 0.408539 0.845398
vt 0.527466 0.891724
vt 0.527466 0.946503
vt 0.527466 0.845398
vt 0.527466 0.792053
vt 0.485931 0.425751
vt 0.425507 0.425751
vt 0.527466 0.891724
vt 0.408539 0.845398
vt 0.527466 0.946503
vt 0.527466 0.845398
vt 0.527466 0.792053
vt 0.527466 0.714844
vt 0.544769 0.976013
vt 0.574158 0.994751
vt 0.544769 0.976013
vt 0.574158 0.994751
vt 0.579926 0.845398
vt 0.576080 0.767242
vt 0.544769 0.708282
vt 0.570648 0.700531
vt 0.544769 0.783936
vt 0.527466 0.891724
vt 0.408539 0.845398
vt 0.527466 0.946503
vt 0.527466 0.845398
vt 0.544769 0.976013
vt 0.574158 0.994751
vt 0.527466 0.792053
vt 0.527466 0.714844
vt 0.579926 0.845398
vt 0.576080 0.767242
vt 0.544769 0.708282
vt 0.570648 0.700531
vt 0.544769 0.783936
vt 0.274536 0.107849
vt 0.007172 0.898285
vt 0.274536 0.898285
vt 0.007172 0.107849
vt 0.527466 0.891724
vt 0.408539 0.845398
vt 0.527466 0.946503
vt 0.527466 0.845398
vt 0.527466 0.792053
vt 0.527466 0.714844
vt 0.276703 0.898285
vt 0.007172 0.107849
vt 0.276703 0.107849
vt 0.007172 0.898285
vt 0.274536 0.107849
vt 0.393555 0.898285
vt 0.393555 0.107849
vt 0.274536 0.898285
vt 0.274536 0.107849
vt 0.274536 0.898285
vt 0.276703 0.898285
vt 0.276703 0.107849
vt 0.274536 0.107849
vt 0.393555 0.898285
vt 0.274536 0.898285
vt 0.393555 0.107849
vt 0.579926 0.845398
vt 0.576080 0.767242
vt 0.544769 0.708282
vt 0.570648 0.700531
vt 0.544769 0.783936
vt 0.425507 0.050232
vt 0.527466 0.714844
vt 0.527466 0.714844
vt 0.527466 0.714844

vn 0.000000 0.000000 1.000000
vn 0.000000 0.000000 1.000000
vn 0.000000 0.000000 1.000000
vn 0.000000 0.000000 1.000000
vn 0.000000 0.000000 1.000000
vn 0.000000 0.000000 1.000000
vn 0.000000 0.000000 -1.000000
vn 0.000000 0.000000 -1.000000
vn 0.000000 0.000000 -1.000000
vn 0.000000 0.000000 -1.000000
vn 0.000000 0.000000 -1.000000
vn 0.000000 0.000000 -1.000000
vn -0.806298 0.000000 -0.591509
vn 0.806298 0.000000 -0.591509
vn 0.000000 -0.816516 -0.577323
vn 0.000000 0.816516 -0.577323
vn -0.999859 0.000000 -0.016784
vn 0.000000 0.999812 -0.019409
vn -0.982141 -0.143741 -0.121402
vn 0.000000 0.305606 0.952158
vn 0.000000 0.133915 0.990993
vn -0.988457 -0.151427 -0.004822
vn 0.000000 -0.519656 -0.854375
vn -0.982307 -0.143067 -0.120850
vn 0.000000 0.305110 0.952317
vn 0.000000 0.132931 0.991125
vn -0.988472 -0.151307 -0.005310
vn 0.000000 -0.518860 -0.854859
vn 0.982141 0.143741 -0.121402
vn 0.000000 -0.305606 0.952158
vn 0.000000 -0.133915 0.990993
vn 0.988457 0.151427 -0.004822
vn 0.000000 0.519656 -0.854375
vn 0.000000 0.613459 0.789727
vn -0.965856 0.239191 0.099546
vn 0.000000 -0.516962 0.856008
vn 0.000000 0.799875 -0.600166
vn 0.965856 0.239191 0.099546
vn -0.982141 0.143741 -0.121402
vn -0.988457 0.151427 -0.004822
vn 0.000000 0.370843 -0.928695
vn -0.982233 -0.143371 -0.121093
vn 0.000000 0.305294 0.952258
vn 0.000000 0.133299 0.991076
vn -0.988465 -0.151367 -0.005066
vn 0.000000 -0.519165 -0.854674
vn 0.000000 0.519165 -0.854674
vn -0.982233 0.143371 -0.121093
vn -0.988465 0.151367 -0.005066
vn 0.000000 0.370054 -0.929010
vn 0.982233 0.143371 -0.121093
vn 0.000000 -0.305294 0.952258
vn 0.000000 -0.133299 0.991076
vn 0.988465 0.151367 -0.005066
vn 0.000000 0.613459 0.789727
vn -0.965856 0.239191 0.099546
vn 0.000000 -0.516962 0.856008
vn 0.000000 0.799875 -0.600166
vn 0.965856 0.239191 0.099546
vn 0.000000 0.518860 -0.854859
vn -0.982307 0.143067 -0.120850
vn -0.988472 0.151307 -0.005310
vn 0.000000 0.369443 -0.929253
vn 0.982307 0.143067 -0.120850
vn 0.000000 -0.305110 0.952317
vn 0.000000 -0.132931 0.991125
vn 0.988472 0.151307 -0.005310
vn 0.000000 0.613459 0.789727
vn -0.965856 0.239191 0.099546
vn 0.000000 -0.516962 0.856008
vn 0.000000 0.799875 -0.600166
vn 0.965856 0.239191 0.099546
vn 0.000000 -0.999812 -0.019409
vn 0.999859 0.000000 -0.016784
vn -0.965856 -0.239191 0.099546
vn 0.000000 -0.613488 0.789704
vn 0.000000 0.516962 0.856008
vn 0.000000 -0.799875 -0.600166
vn 0.965856 -0.239191 0.099546
vn 0.000000 0.516962 0.856008
vn 0.000000 -0.305606 0.952158
vn 0.000000 -0.133915 0.990993
vn 0.000000 -0.305294 0.952258
vn 0.000000 -0.133299 0.991076
vn 0.000000 -0.370843 -0.928695
vn 0.982141 -0.143741 -0.121402
vn 0.000000 0.305606 0.952158
vn 0.000000 0.133915 0.990993
vn 0.988457 -0.151427 -0.004822
vn -0.965856 -0.239191 0.099546
vn 0.000000 -0.613488 0.789704
vn 0.000000 0.516962 0.856008
vn 0.000000 -0.799875 -0.600166
vn 0.000000 -0.305110 0.952317
vn 0.000000 -0.132931 0.991125
vn 0.965856 -0.239191 0.099546
vn 0.000000 0.516962 0.856008
vn 0.000000 -0.370054 -0.929010
vn 0.982233 -0.143371 -0.121093
vn 0.000000 0.305294 0.952258
vn 0.000000 0.133299 0.991076
vn 0.988465 -0.151367 -0.005066
vn 0.987081 -0.160221 -0.000427
vn 0.999993 0.000000 -0.003662
vn 0.990820 -0.135128 -0.003967
vn 1.000000 0.000000 0.000000
vn -0.965856 -0.239191 0.099546
vn 0.000000 -0.613488 0.789704
vn 0.000000 0.516962 0.856008
vn 0.000000 -0.799875 -0.600166
vn 0.965856 -0.239191 0.099546
vn 0.000000 0.516962 0.856008
vn -0.990475 -0.137695 -0.000427
vn -0.999991 0.000000 -0.004333
vn -0.986589 -0.163150 -0.004822
vn -1.000000 0.000000 0.000000
vn 0.000000 -0.999567 -0.029419
vn 0.000000 -0.999567 -0.029419
vn 0.000000 -0.999567 -0.029419
vn 0.000000 -0.999567 -0.029419
vn 0.987081 0.160221 -0.000427
vn 0.990820 0.135128 -0.003967
vn -0.990475 0.137695 -0.000427
vn -0.986589 0.163150 -0.004822
vn 0.000000 0.999567 -0.029419
vn 0.000000 0.999567 -0.029419
vn 0.000000 0.999567 -0.029419
vn 0.000000 0.999567 -0.029419
vn 0.000000 -0.369443 -0.929253
vn 0.982307 -0.143067 -0.120850
vn 0.000000 0.305110 0.952317
vn 0.000000 0.132931 0.991125
vn 0.988472 -0.151307 -0.005310
vn 0.806298 0.000000 -0.591509
vn 0.000000 -0.516962 0.856008
vn 0.000000 -0.516962 0.856008
vn 0.000000 -0.516962 0.856008

g polygon0
s 1
usemtl mat2
f 1/1/1 2/2/2 3/3/3
f 1/1/1 4/4/4 2/2/2
f 5/5/5 4/4/4 1/1/1
f 5/5/5 6/6/6 4/4/4
f 7/7/7 8/8/8 9/9/9
f 7/7/7 10/10/10 8/8/8
f 11/11/11 10/10/10 7/7/7
f 11/11/11 12/12/12 10/10/10
f 13/13/13 14/14/14 15/15/15
f 13/13/13 16/16/16 14/14/14
f 17/17/17 16/16/16 13/13/13
f 17/17/17 18/18/18 16/16/16
f 19/19/19 20/20/20 21/21/21
f 19/19/19 22/22/22 20/20/20
f 23/23/23 22/22/22 19/19/19
f 24/24/24 25/25/25 26/26/26
f 24/24/24 27/27/27 25/25/25
f 28/28/28 27/27/27 24/24/24
f 29/29/29 30/30/30 31/31/31
f 29/29/29 32/32/32 30/30/30
f 33/33/33 32/32/32 29/29/29
f 34/34/34 35/35/35 36/36/36
f 34/34/34 37/37/37 35/35/35
f 38/38/38 37/37/37 34/34/34
f 33/33/33 39/39/39 40/40/40
f 33/33/33 41/41/41 39/39/39
f 29/29/29 41/41/41 33/33/33
f 42/42/42 43/43/43 44/44/44
f 42/42/42 45/45/45 43/43/43
f 46/46/46 45/45/45 42/42/42
f 47/47/47 48/48/48 49/49/49
f 47/47/47 50/50/50 48/48/48
f 51/51/51 50/50/50 47/47/47
f 51/51/51 52/52/52 53/53/53
f 51/51/51 54/54/54 52/52/52
f 47/47/47 54/54/54 51/51/51
f 55/55/55 56/56/56 57/57/57
f 55/55/55 58/58/58 56/56/56
f 59/59/59 58/58/58 55/55/55
f 60/60/60 61/61/61 62/62/62
f 60/60/60 63/63/63 61/61/61
f 64/64/64 63/63/63 60/60/60
f 64/64/64 65/65/65 66/66/66
f 64/64/64 67/67/67 65/65/65
f 60/60/60 67/67/67 64/64/64
f 68/68/68 69/69/69 70/70/70
f 68/68/68 71/71/71 69/69/69
f 72/72/72 71/71/71 68/68/68
f 15/15/15 17/17/17 13/13/13
f 15/15/15 73/73/73 17/17/17
f 74/74/74 73/73/73 15/15/15
f 75/75/75 76/76/76 77/77/77
f 75/75/75 78/78/78 76/76/76
f 76/76/76 79/79/79 80/80/80
f 76/76/76 78/78/78 79/79/79
f 81/81/81 39/39/39 82/82/82
f 81/81/81 40/40/40 39/39/39
f 83/83/83 48/48/48 84/84/84
f 83/83/83 49/49/49 48/48/48
f 85/85/85 23/23/23 19/19/19
f 85/85/85 86/86/86 23/23/23
f 87/87/87 86/86/86 88/88/88
f 87/87/87 89/89/89 86/86/86
f 90/90/90 91/91/91 92/92/92
f 90/90/90 93/93/93 91/91/91
f 94/94/94 61/61/61 95/95/95
f 94/94/94 62/62/62 61/61/61
f 91/91/91 96/96/96 97/97/97
f 91/91/91 93/93/93 96/96/96
f 98/98/98 46/46/46 42/42/42
f 98/98/98 99/99/99 46/46/46
f 100/100/100 99/99/99 101/101/101
f 100/100/100 102/102/102 99/99/99
f 103/103/103 104/104/104 105/105/105
f 103/103/103 106/106/106 104/104/104
f 107/107/107 108/108/108 109/109/109
f 107/107/107 110/110/110 108/108/108
f 108/108/108 111/111/111 112/112/112
f 108/108/108 110/110/110 111/111/111
f 113/113/113 114/114/114 115/115/115
f 113/113/113 116/116/116 114/114/114
f 117/117/117 118/118/118 119/119/119
f 117/117/117 120/120/120 118/118/118
f 121/121/121 104/104/104 106/106/106
f 121/121/121 122/122/122 104/104/104
f 114/114/114 123/123/123 124/124/124
f 114/114/114 116/116/116 123/123/123
f 125/125/125 126/126/126 127/127/127
f 125/125/125 128/128/128 126/126/126
f 129/129/129 28/28/28 24/24/24
f 129/129/129 130/130/130 28/28/28
f 131/131/131 130/130/130 132/132/132
f 131/131/131 133/133/133 130/130/130
f 134/134/134 74/74/74 15/15/15
f 134/134/134 16/16/16 74/74/74
f 89/89/89 23/23/23 86/86/86
f 102/102/102 46/46/46 99/99/99
f 133/133/133 28/28/28 130/130/130
f 135/135/135 38/38/38 34/34/34
f 136/136/136 59/59/59 55/55/55
f 137/137/137 72/72/72 68/68/68
f 18/18/18 74/74/74 16/16/16

v -0.642578 -3.882813 13.781250
v 0.000000 -4.088867 14.591797
v 0.000000 -3.635742 14.365234
v -0.523438 -4.366211 14.125000
v 0.000000 -4.643555 13.657227
v 0.642578 -3.882813 13.781250
v 0.524414 -4.366211 14.125000
v 0.000000 -4.088867 14.591797
v 0.000000 -3.635742 14.365234
v -0.642578 -4.011719 18.095703
v 0.000000 -4.217773 18.907227
v 0.000000 -3.765625 18.680664
v -0.523438 -4.495117 18.439453
v 0.000000 -4.772461 17.971680
v 0.642578 -4.011719 18.095703
v 0.524414 -4.495117 18.439453
v 0.000000 -4.217773 18.907227
v 0.000000 -3.765625 18.680664
v -0.642578 -4.102539 22.337891
v 0.000000 -4.308594 23.148438
v 0.000000 -3.855469 22.921875
v -0.523438 -4.585938 22.681641
v 0.000000 -4.863281 22.213867
v 0.642578 -4.102539 22.337891
v 0.524414 -4.585938 22.681641
v 0.000000 -4.308594 23.148438
v 0.000000 -3.855469 22.921875
v 0.000000 4.643555 13.657227
v -0.642578 3.882813 13.781250
v -0.523438 4.366211 14.125000
v 0.000000 4.128906 13.197266
v 0.642578 3.882813 13.781250
v 0.000000 4.772461 17.971680
v -0.642578 4.011719 18.095703
v -0.523438 4.495117 18.439453
v 0.000000 4.258789 17.511719
v 0.642578 4.011719 18.095703
v 0.000000 4.863281 22.213867
v -0.642578 4.102539 22.337891
v -0.523438 4.585938 22.681641
v 0.000000 4.348633 21.753906
v 0.642578 4.102539 22.337891
v 0.000000 -4.128906 13.197266
v 0.000000 -4.258789 17.511719
v 0.000000 -4.348633 21.753906
v 0.000000 4.088867 14.591797
v 0.000000 3.635742 14.365234
v 0.524414 4.366211 14.125000
v 0.000000 4.088867 14.591797
v 0.000000 4.217773 18.907227
v 0.000000 3.765625 18.680664
v 0.524414 4.495117 18.439453
v 0.000000 4.217773 18.907227
v 0.000000 4.308594 23.148438
v 0.000000 3.855469 22.921875
v 0.524414 4.585938 22.681641
v 0.000000 4.308594 23.148438
v 0.000000 3.635742 14.365234
v 0.000000 3.765625 18.680664
v 0.000000 3.855469 22.921875

vt 0.544769 0.920441
vt 0.527466 0.946503
vt 0.544769 0.976013
vt 0.527466 0.891724
vt 0.527466 0.845398
vt 0.544769 0.783936
vt 0.527466 0.792053
vt 0.527466 0.714844
vt 0.544769 0.708282
vt 0.544769 0.920441
vt 0.527466 0.946503
vt 0.544769 0.976013
vt 0.527466 0.891724
vt 0.527466 0.845398
vt 0.544769 0.783936
vt 0.527466 0.792053
vt 0.527466 0.714844
vt 0.544769 0.708282
vt 0.544769 0.920441
vt 0.527466 0.946503
vt 0.544769 0.976013
vt 0.527466 0.891724
vt 0.527466 0.845398
vt 0.544769 0.783936
vt 0.527466 0.792053
vt 0.527466 0.714844
vt 0.544769 0.708282
vt 0.527466 0.845398
vt 0.544769 0.920441
vt 0.527466 0.891724
vt 0.544769 0.845398
vt 0.544769 0.783936
vt 0.527466 0.845398
vt 0.544769 0.920441
vt 0.527466 0.891724
vt 0.544769 0.845398
vt 0.544769 0.783936
vt 0.527466 0.845398
vt 0.544769 0.920441
vt 0.527466 0.891724
vt 0.544769 0.845398
vt 0.544769 0.783936
vt 0.544769 0.845398
vt 0.544769 0.845398
vt 0.544769 0.845398
vt 0.527466 0.946503
vt 0.544769 0.976013
vt 0.527466 0.792053
vt 0.527466 0.714844
vt 0.527466 0.946503
vt 0.544769 0.976013
vt 0.527466 0.792053
vt 0.527466 0.714844
vt 0.527466 0.946503
vt 0.544769 0.976013
vt 0.527466 0.792053
vt 0.527466 0.714844
vt 0.544769 0.708282
vt 0.544769 0.708282
vt 0.544769 0.708282

vn 7924809334889683200000000000000000.000000 7840161470883427500000000000000000.000000 -1.#QNAN0
vn 7924809334889683200000000000000000.000000 7840161470883427500000000000000000.000000 -1.#QNAN0
vn 7924809334889683200000000000000000.000000 7840161470883427500000000000000000.000000 -1.#QNAN0
vn 7900660838543343300000000000000000.000000 0.000000 0.000000
vn 7900660838543343300000000000000000.000000 0.000000 0.000000
vn 7924809334889683200000000000000000.000000 7840161470883427500000000000000000.000000 -1.#QNAN0
vn 7924809334889683200000000000000000.000000 7840161470883427500000000000000000.000000 -1.#QNAN0
vn 7900660838543343300000000000000000.000000 0.000000 0.000000
vn 7900660838543343300000000000000000.000000 0.000000 0.000000
vn 7924809334889683200000000000000000.000000 7840161470883427500000000000000000.000000 -1.#QNAN0
vn 7924809334889683200000000000000000.000000 7840161470883427500000000000000000.000000 -1.#QNAN0
vn 7924809334889683200000000000000000.000000 7840161470883427500000000000000000.000000 -1.#QNAN0
vn 7900660838543343300000000000000000.000000 0.000000 0.000000
vn 7900660838543343300000000000000000.000000 0.000000 0.000000
vn 7924809334889683200000000000000000.000000 7840161470883427500000000000000000.000000 -1.#QNAN0
vn 7924809334889683200000000000000000.000000 7840161470883427500000000000000000.000000 -1.#QNAN0
vn 7900660838543343300000000000000000.000000 0.000000 0.000000
vn 7900660838543343300000000000000000.000000 0.000000 0.000000
vn 7924809334889683200000000000000000.000000 7840161470883427500000000000000000.000000 -1.#QNAN0
vn 7924809334889683200000000000000000.000000 7840161470883427500000000000000000.000000 -1.#QNAN0
vn 7924809334889683200000000000000000.000000 7840161470883427500000000000000000.000000 -1.#QNAN0
vn 7900660838543343300000000000000000.000000 0.000000 0.000000
vn 7900660838543343300000000000000000.000000 0.000000 0.000000
vn 7924809334889683200000000000000000.000000 7840161470883427500000000000000000.000000 -1.#QNAN0
vn 7924809334889683200000000000000000.000000 7840161470883427500000000000000000.000000 -1.#QNAN0
vn 7900660838543343300000000000000000.000000 0.000000 0.000000
vn 7900660838543343300000000000000000.000000 0.000000 0.000000
vn 7924809334889683200000000000000000.000000 7840161470883427500000000000000000.000000 -1.#QNAN0
vn 7924809334889683200000000000000000.000000 7840161470883427500000000000000000.000000 -1.#QNAN0
vn 7924809334889683200000000000000000.000000 7840161470883427500000000000000000.000000 -1.#QNAN0
vn 7900660838543343300000000000000000.000000 0.000000 0.000000
vn 7900660838543343300000000000000000.000000 0.000000 0.000000
vn 7924809334889683200000000000000000.000000 7840161470883427500000000000000000.000000 -1.#QNAN0
vn 7924809334889683200000000000000000.000000 7840161470883427500000000000000000.000000 -1.#QNAN0
vn 7924809334889683200000000000000000.000000 7840161470883427500000000000000000.000000 -1.#QNAN0
vn 7900660838543343300000000000000000.000000 0.000000 0.000000
vn 7900660838543343300000000000000000.000000 0.000000 0.000000
vn 7924809334889683200000000000000000.000000 7840161470883427500000000000000000.000000 -1.#QNAN0
vn 7924809334889683200000000000000000.000000 7840161470883427500000000000000000.000000 -1.#QNAN0
vn 7924809334889683200000000000000000.000000 7840161470883427500000000000000000.000000 -1.#QNAN0
vn 7900660838543343300000000000000000.000000 0.000000 0.000000
vn 7900660838543343300000000000000000.000000 0.000000 0.000000
vn 7924809334889683200000000000000000.000000 7840161470883427500000000000000000.000000 -1.#QNAN0
vn 7924809334889683200000000000000000.000000 7840161470883427500000000000000000.000000 -1.#QNAN0
vn 7924809334889683200000000000000000.000000 7840161470883427500000000000000000.000000 -1.#QNAN0
vn 7924809334889683200000000000000000.000000 7840161470883427500000000000000000.000000 -1.#QNAN0
vn 7924809334889683200000000000000000.000000 7840161470883427500000000000000000.000000 -1.#QNAN0
vn 7924809334889683200000000000000000.000000 7840161470883427500000000000000000.000000 -1.#QNAN0
vn 7900660838543343300000000000000000.000000 0.000000 0.000000
vn 7924809334889683200000000000000000.000000 7840161470883427500000000000000000.000000 -1.#QNAN0
vn 7924809334889683200000000000000000.000000 7840161470883427500000000000000000.000000 -1.#QNAN0
vn 7924809334889683200000000000000000.000000 7840161470883427500000000000000000.000000 -1.#QNAN0
vn 7900660838543343300000000000000000.000000 0.000000 0.000000
vn 7924809334889683200000000000000000.000000 7840161470883427500000000000000000.000000 -1.#QNAN0
vn 7924809334889683200000000000000000.000000 7840161470883427500000000000000000.000000 -1.#QNAN0
vn 7924809334889683200000000000000000.000000 7840161470883427500000000000000000.000000 -1.#QNAN0
vn 7900660838543343300000000000000000.000000 0.000000 0.000000
vn 7924809334889683200000000000000000.000000 7840161470883427500000000000000000.000000 -1.#QNAN0
vn 7900660838543343300000000000000000.000000 0.000000 0.000000
vn 7900660838543343300000000000000000.000000 0.000000 0.000000

g polygon1
s 1
usemtl mat1
f 138/138/138 139/139/139 140/140/140
f 138/138/138 141/141/141 139/139/139
f 142/142/142 141/141/141 138/138/138
f 143/143/143 144/144/144 142/142/142
f 143/143/143 145/145/145 144/144/144
f 146/146/146 145/145/145 143/143/143
f 147/147/147 148/148/148 149/149/149
f 147/147/147 150/150/150 148/148/148
f 151/151/151 150/150/150 147/147/147
f 152/152/152 153/153/153 151/151/151
f 152/152/152 154/154/154 153/153/153
f 155/155/155 154/154/154 152/152/152
f 156/156/156 157/157/157 158/158/158
f 156/156/156 159/159/159 157/157/157
f 160/160/160 159/159/159 156/156/156
f 161/161/161 162/162/162 160/160/160
f 161/161/161 163/163/163 162/162/162
f 164/164/164 163/163/163 161/161/161
f 165/165/165 166/166/166 167/167/167
f 165/165/165 168/168/168 166/166/166
f 169/169/169 168/168/168 165/165/165
f 170/170/170 171/171/171 172/172/172
f 170/170/170 173/173/173 171/171/171
f 174/174/174 173/173/173 170/170/170
f 175/175/175 176/176/176 177/177/177
f 175/175/175 178/178/178 176/176/176
f 179/179/179 178/178/178 175/175/175
f 180/180/180 142/142/142 138/138/138
f 180/180/180 143/143/143 142/142/142
f 181/181/181 151/151/151 147/147/147
f 181/181/181 152/152/152 151/151/151
f 182/182/182 160/160/160 156/156/156
f 182/182/182 161/161/161 160/160/160
f 183/183/183 166/166/166 184/184/184
f 183/183/183 167/167/167 166/166/166
f 185/185/185 169/169/169 165/165/165
f 185/185/185 186/186/186 169/169/169
f 187/187/187 171/171/171 188/188/188
f 187/187/187 172/172/172 171/171/171
f 189/189/189 174/174/174 170/170/170
f 189/189/189 190/190/190 174/174/174
f 191/191/191 176/176/176 192/192/192
f 191/191/191 177/177/177 176/176/176
f 193/193/193 179/179/179 175/175/175
f 193/193/193 194/194/194 179/179/179
f 195/195/195 169/169/169 186/186/186
f 196/196/196 174/174/174 190/190/190
f 197/197/197 179/179/179 194/194/194

