mtllib enm_eggpawn_SD_shield_T.mtl

v -4.436768 -3.874023 0.000000
v -4.978271 -2.217529 2.876709
v -5.749023 -2.217529 0.000000
v -2.709961 -4.294678 2.714355
v -2.325928 -5.036621 0.000000
v 0.004395 -5.036621 2.330322
v 0.004395 -5.461914 0.000000
v 2.334473 -5.036621 0.000000
v 0.004395 -5.036621 -2.330322
v 2.718750 -4.294678 -2.714355
v 0.004395 -3.874023 -4.441162
v 2.881104 -2.217529 -4.982666
v 0.004395 -2.217529 -5.753418
v -2.872314 -2.217529 4.982666
v 0.004395 -3.874023 4.441162
v 2.718750 -4.294678 2.714355
v 4.445557 -3.874023 0.000000
v 4.987061 -2.217529 -2.876709
v 0.000000 -2.302002 3.190674
v -0.360840 -0.447754 2.440186
v -0.531738 -2.302002 2.658936
v 0.000000 -0.886963 3.019775
v 0.531738 -2.302002 2.658936
v 0.360840 -0.447754 2.440186
v 0.000000 -2.302002 2.127197
v 0.000000 -0.809814 2.007568
v -0.531738 -2.302002 2.658936
v -0.360840 -0.447754 2.440186
v 0.000000 -0.806396 0.000000
v 0.360840 -0.445313 0.000000
v 0.360840 -0.447754 -2.440186
v 0.000000 -0.084473 -2.221436
v 0.000000 -0.886963 -3.019775
v -0.360840 -0.447754 -2.440186
v 0.000000 -2.302002 -3.190674
v -0.531738 -2.302002 -2.658936
v 0.004395 -2.217529 5.753418
v 2.881104 -2.217529 4.982666
v 4.987061 -2.217529 2.876709
v 5.757813 -2.217529 0.000000
v -0.360840 -0.445313 0.000000
v 0.000000 -0.809814 -2.007568
v 0.000000 -2.302002 -2.127197
v 0.531738 -2.302002 -2.658936
v -4.978271 -2.217529 -2.876709
v -2.709961 -4.294678 -2.714355
v -2.872314 -2.217529 -4.982666
v 5.757813 -2.217529 0.000000
v -5.749023 -2.217529 0.000000
v -4.978271 -2.217529 2.876709
v -4.978271 -2.217529 -2.876709
v 4.987061 -2.217529 -2.876709
v 2.881104 -2.217529 -4.982666
v -2.988281 -3.037109 4.853027
v -4.056885 -3.037109 2.775879
v -2.770996 -3.037109 4.048096
v -4.892822 -3.037109 2.968750
v -5.661865 -3.037109 6.088623
v -6.128662 -3.037109 5.642578
v -3.039063 -2.334961 4.604980
v -2.988281 -3.037109 4.853027
v -2.770996 -3.037109 4.048096
v -5.661865 -3.037109 6.088623
v -5.672119 -2.334961 5.642090
v -6.128662 -3.037109 5.642578
v 4.677002 -2.334961 3.011963
v 4.910156 -3.037109 2.950684
v 4.094482 -3.037109 2.767822
v 6.145996 -3.037109 5.624268
v 5.689453 -2.334961 5.624023
v 5.679199 -3.037109 6.070557
v 2.881104 -2.217529 4.982666
v -2.872314 -2.217529 4.982666
v 0.004395 -2.217529 5.753418
v 4.987061 -2.217529 2.876709
v 3.005371 -3.037109 -4.834961
v 4.094482 -3.037109 -2.767822
v 2.808350 -3.037109 -4.040039
v 4.910156 -3.037109 -2.950684
v 5.679199 -3.037109 -6.070557
v 6.145996 -3.037109 -5.624268
v 0.000000 -0.084473 0.000000
v -0.360840 -0.445313 0.000000
v 0.000000 -0.084473 2.221436
v 3.046143 -2.334961 -4.625244
v 3.005371 -3.037109 -4.834961
v 2.808350 -3.037109 -4.040039
v 5.679199 -3.037109 -6.070557
v 5.689453 -2.334961 -5.624023
v -4.669922 -2.334961 -2.991699
v -4.892822 -3.037109 -2.968750
v -4.056885 -3.037109 -2.775879
v -6.128662 -3.037109 -5.642578
v -5.672119 -2.334961 -5.642090
v -5.661865 -3.037109 -6.088623
v -5.672119 -2.334961 -5.642090
v -3.039063 -2.334961 -4.604980
v -6.128662 -3.037109 -5.642578
v -4.892822 -3.037109 -2.968750
v -5.661865 -3.037109 -6.088623
v -2.988281 -3.037109 -4.853027
v -6.128662 -3.037109 -5.642578
v 4.910156 -3.037109 -2.950684
v 4.677002 -2.334961 -3.011963
v 4.094482 -3.037109 -2.767822
v 6.145996 -3.037109 -5.624268
v 5.689453 -2.334961 -5.624023
v 5.679199 -3.037109 -6.070557
v 3.005371 -3.037109 4.834961
v 3.046143 -2.334961 4.625244
v 2.808350 -3.037109 4.040039
v 5.679199 -3.037109 6.070557
v -2.872314 -2.217529 -4.982666
v 0.004395 -2.217529 -5.753418
v -0.360840 -0.447754 -2.440186
v -0.531738 -2.302002 -2.658936
v -4.892822 -3.037109 2.968750
v -4.669922 -2.334961 2.991699
v -4.056885 -3.037109 2.775879
v -6.128662 -3.037109 5.642578
v -5.672119 -2.334961 5.642090
v -3.039063 -2.334961 4.604980
v 4.094482 -3.037109 2.767822
v 3.005371 -3.037109 4.834961
v 2.808350 -3.037109 4.040039
v 4.910156 -3.037109 2.950684
v 5.689453 -2.334961 5.624023
v 4.677002 -2.334961 3.011963
v 5.679199 -3.037109 6.070557
v 6.145996 -3.037109 5.624268
v -4.056885 -3.037109 -2.775879
v -2.770996 -3.037109 -4.048096
v -2.988281 -3.037109 -4.853027
v -2.770996 -3.037109 -4.048096
v -3.039063 -2.334961 -4.604980
v 4.677002 -2.334961 -3.011963

vt 0.993866 0.368866
vt 0.817291 0.335693
vt 0.993866 0.288483
vt 0.827332 0.474609
vt 0.993866 0.498138
vt 0.851135 0.640839
vt 0.993866 0.640839
vt 0.993866 0.783539
vt 0.851135 0.640839
vt 0.827332 0.807068
vt 0.720459 0.640839
vt 0.686920 0.817017
vt 0.639191 0.640839
vt 0.686920 0.464661
vt 0.720459 0.640839
vt 0.827332 0.807068
vt 0.993866 0.912811
vt 0.817291 0.945984
vt 0.339508 0.844208
vt 0.310455 0.901123
vt 0.308319 0.844208
vt 0.339508 0.887939
vt 0.368805 0.844208
vt 0.364716 0.901520
vt 0.393890 0.844208
vt 0.396057 0.904053
vt 0.422546 0.844208
vt 0.428864 0.900238
vt 0.393890 0.991028
vt 0.368774 0.991028
vt 0.365112 0.900787
vt 0.339508 0.906311
vt 0.339508 0.887939
vt 0.313141 0.900757
vt 0.339508 0.844208
vt 0.308319 0.844208
vt 0.639191 0.640839
vt 0.686920 0.817017
vt 0.817291 0.945984
vt 0.993866 0.993195
vt 0.422546 0.991028
vt 0.396057 0.904053
vt 0.393890 0.844208
vt 0.368805 0.844208
vt 0.817291 0.335693
vt 0.827332 0.474609
vt 0.686920 0.464661
vt 0.285431 0.462036
vt 0.672211 0.462036
vt 0.646301 0.560883
vt 0.646301 0.560883
vt 0.311340 0.560883
vt 0.382141 0.633270
vt 0.641479 0.875702
vt 0.528839 0.846649
vt 0.644043 0.847198
vt 0.531372 0.874298
vt 0.598816 0.978271
vt 0.570007 0.978363
vt 0.667908 0.887817
vt 0.641479 0.875702
vt 0.644043 0.847198
vt 0.598816 0.978271
vt 0.626953 0.986145
vt 0.592834 0.992889
vt 0.636749 0.714539
vt 0.612793 0.689178
vt 0.615662 0.662537
vt 0.577240 0.794617
vt 0.601685 0.801910
vt 0.572510 0.808838
vt 0.382141 0.633270
vt 0.575531 0.633270
vt 0.478821 0.659760
vt 0.311340 0.560883
vt 0.517975 0.687927
vt 0.615662 0.662537
vt 0.515350 0.660950
vt 0.612793 0.689178
vt 0.552429 0.793884
vt 0.577240 0.794617
vt 0.339508 0.991028
vt 0.308319 0.991028
vt 0.339508 0.906311
vt 0.494598 0.697327
vt 0.517975 0.687927
vt 0.515350 0.660950
vt 0.552429 0.793884
vt 0.519257 0.804382
vt 0.504456 0.882629
vt 0.531372 0.874298
vt 0.528839 0.846649
vt 0.570007 0.978363
vt 0.530975 0.987732
vt 0.598816 0.978271
vt 0.626953 0.986145
vt 0.667908 0.887817
vt 0.592834 0.992889
vt 0.531372 0.874298
vt 0.598816 0.978271
vt 0.641479 0.875702
vt 0.570007 0.978363
vt 0.612793 0.689178
vt 0.636749 0.714539
vt 0.615662 0.662537
vt 0.577240 0.794617
vt 0.601685 0.801910
vt 0.572510 0.808838
vt 0.517975 0.687927
vt 0.494598 0.697327
vt 0.515350 0.660950
vt 0.552429 0.793884
vt 0.575531 0.633270
vt 0.478821 0.659760
vt 0.425873 0.902740
vt 0.422546 0.844208
vt 0.531372 0.874298
vt 0.504456 0.882629
vt 0.528839 0.846649
vt 0.570007 0.978363
vt 0.530975 0.987732
vt 0.426666 0.937866
vt 0.615662 0.662537
vt 0.517975 0.687927
vt 0.515350 0.660950
vt 0.612793 0.689178
vt 0.519257 0.804382
vt 0.428162 0.755066
vt 0.552429 0.793884
vt 0.577240 0.794617
vt 0.528839 0.846649
vt 0.644043 0.847198
vt 0.641479 0.875702
vt 0.644043 0.847198
vt 0.426666 0.937866
vt 0.428162 0.755066

vn -0.653552 -0.756882 0.000000
vn -0.641603 -0.669801 0.373780
vn -0.783849 -0.620951 0.000000
vn -0.406313 -0.818425 0.406313
vn -0.330255 -0.943892 0.000000
vn 0.000000 -0.943892 0.330255
vn 0.000000 -1.000000 0.000000
vn 0.330255 -0.943892 0.000000
vn 0.000000 -0.943892 -0.330255
vn 0.406313 -0.818425 -0.406313
vn 0.000000 -0.756882 -0.653552
vn 0.373780 -0.669801 -0.641603
vn 0.000000 -0.620951 -0.783849
vn -0.373780 -0.669801 0.641603
vn 0.000000 -0.756882 0.653552
vn 0.406313 -0.818425 0.406313
vn 0.653552 -0.756882 0.000000
vn 0.641603 -0.669801 -0.373780
vn -0.017212 0.154667 0.987817
vn -0.874691 0.391478 0.285765
vn -0.994973 0.079954 0.060301
vn -0.033020 0.313601 0.948981
vn 0.997542 0.062316 0.032043
vn 0.876393 0.392817 0.278622
vn 0.012329 -0.057680 -0.998259
vn 0.014954 -0.783827 -0.620799
vn -0.994973 0.079954 0.060301
vn -0.874691 0.391478 0.285765
vn 0.000183 -1.000000 0.000000
vn 1.000000 0.000183 0.000000
vn 0.876393 0.392817 -0.278622
vn -0.000183 0.966274 -0.257514
vn -0.033020 0.313601 -0.948981
vn -0.874691 0.391478 -0.285765
vn -0.017212 0.154667 -0.987817
vn -0.994973 0.079954 -0.060301
vn 0.000000 -0.620951 0.783849
vn 0.373780 -0.669801 0.641603
vn 0.641603 -0.669801 0.373780
vn 0.783849 -0.620951 0.000000
vn -1.000000 0.000610 0.000000
vn 0.014954 -0.783827 0.620799
vn 0.012329 -0.057680 0.998259
vn 0.997542 0.062316 -0.032043
vn -0.641603 -0.669801 -0.373780
vn -0.406313 -0.818425 -0.406313
vn -0.373780 -0.669801 -0.641603
vn 0.000000 1.000000 0.000000
vn 0.000000 1.000000 0.000000
vn 0.000000 1.000000 0.000000
vn 0.000000 1.000000 0.000000
vn 0.000000 1.000000 0.000000
vn 0.000000 1.000000 0.000000
vn 0.000000 -1.000000 0.000000
vn 0.000000 -1.000000 0.000000
vn 0.000000 -1.000000 0.000000
vn 0.000000 -1.000000 0.000000
vn 0.000000 -1.000000 0.000000
vn 0.000000 -1.000000 0.000000
vn 0.537540 0.649845 0.537357
vn 0.700442 0.282411 0.655459
vn 0.952983 0.160031 0.257319
vn -0.133913 0.513251 0.847727
vn -0.381851 0.837068 0.391800
vn -0.841665 0.517084 0.155638
vn 0.531372 0.649231 -0.544190
vn 0.639887 0.275144 -0.717523
vn 0.215948 0.155827 -0.963890
vn 0.840467 0.519844 0.152895
vn 0.387376 0.836701 0.387132
vn 0.138551 0.508672 0.849739
vn 0.000000 1.000000 0.000000
vn 0.000000 1.000000 0.000000
vn 0.000000 1.000000 0.000000
vn 0.000000 1.000000 0.000000
vn 0.000000 -1.000000 0.000000
vn 0.000000 -1.000000 0.000000
vn 0.000000 -1.000000 0.000000
vn 0.000000 -1.000000 0.000000
vn 0.000000 -1.000000 0.000000
vn 0.000000 -1.000000 0.000000
vn -0.000183 1.000000 0.000000
vn -1.000000 0.000610 0.000000
vn -0.000183 0.966274 0.257514
vn -0.549212 0.627462 -0.551959
vn -0.719261 0.236580 -0.653218
vn -0.962744 0.126950 -0.238763
vn 0.138551 0.508672 -0.849739
vn 0.387376 0.836701 -0.387132
vn -0.540901 0.625253 0.562569
vn -0.654603 0.231080 0.719789
vn -0.223630 0.102354 0.969285
vn -0.841665 0.517084 -0.155638
vn -0.381851 0.837068 -0.391800
vn -0.133913 0.513251 -0.847727
vn -0.381851 0.837068 -0.391800
vn 0.537540 0.649845 -0.537357
vn -0.841665 0.517084 -0.155638
vn 0.000000 -1.000000 0.000000
vn 0.000000 -1.000000 0.000000
vn 0.000000 -1.000000 0.000000
vn 0.000000 -1.000000 0.000000
vn 0.639887 0.275144 0.717523
vn 0.531372 0.649231 0.544190
vn 0.215948 0.155827 0.963890
vn 0.840467 0.519844 -0.152895
vn 0.387376 0.836701 -0.387132
vn 0.138551 0.508672 -0.849739
vn -0.719261 0.236580 0.653218
vn -0.549212 0.627462 0.551959
vn -0.962744 0.126950 0.238763
vn 0.138551 0.508672 0.849739
vn 0.000000 1.000000 0.000000
vn 0.000000 1.000000 0.000000
vn -0.874691 0.391478 -0.285765
vn -0.994973 0.079954 -0.060301
vn -0.654603 0.231080 -0.719789
vn -0.540901 0.625253 -0.562569
vn -0.223630 0.102354 -0.969285
vn -0.841665 0.517084 0.155638
vn -0.381851 0.837068 0.391800
vn 0.537540 0.649845 0.537357
vn 0.000000 -1.000000 0.000000
vn 0.000000 -1.000000 0.000000
vn 0.000000 -1.000000 0.000000
vn 0.000000 -1.000000 0.000000
vn 0.387376 0.836701 0.387132
vn 0.531372 0.649231 -0.544190
vn 0.000000 -1.000000 0.000000
vn 0.000000 -1.000000 0.000000
vn 0.000000 -1.000000 0.000000
vn 0.000000 -1.000000 0.000000
vn 0.700442 0.282411 -0.655459
vn 0.952983 0.160031 -0.257319
vn 0.537540 0.649845 -0.537357
vn 0.531372 0.649231 0.544190

g polygon0
s 1
usemtl mat3
f 1/1/1 2/2/2 3/3/3
f 1/1/1 4/4/4 2/2/2
f 5/5/5 4/4/4 1/1/1
f 5/5/5 6/6/6 4/4/4
f 7/7/7 6/6/6 5/5/5
f 7/7/7 8/8/8 6/6/6
f 9/9/9 8/8/8 7/7/7
f 9/9/9 10/10/10 8/8/8
f 11/11/11 10/10/10 9/9/9
f 11/11/11 12/12/12 10/10/10
f 13/13/13 12/12/12 11/11/11
f 4/4/4 14/14/14 2/2/2
f 4/4/4 15/15/15 14/14/14
f 6/6/6 15/15/15 4/4/4
f 6/6/6 16/16/16 15/15/15
f 8/8/8 16/16/16 6/6/6
f 8/8/8 17/17/17 16/16/16
f 10/10/10 17/17/17 8/8/8
f 10/10/10 18/18/18 17/17/17
f 12/12/12 18/18/18 10/10/10
f 19/19/19 20/20/20 21/21/21
f 19/19/19 22/22/22 20/20/20
f 23/23/23 22/22/22 19/19/19
f 23/23/23 24/24/24 22/22/22
f 25/25/25 24/24/24 23/23/23
f 25/25/25 26/26/26 24/24/24
f 27/27/27 26/26/26 25/25/25
f 27/27/27 28/28/28 26/26/26
f 29/29/29 24/24/24 26/26/26
f 29/29/29 30/30/30 24/24/24
f 31/31/31 30/30/30 29/29/29
f 31/31/31 32/32/32 30/30/30
f 33/33/33 32/32/32 31/31/31
f 33/33/33 34/34/34 32/32/32
f 35/35/35 34/34/34 33/33/33
f 35/35/35 36/36/36 34/34/34
f 15/15/15 37/37/37 14/14/14
f 15/15/15 38/38/38 37/37/37
f 16/16/16 38/38/38 15/15/15
f 16/16/16 39/39/39 38/38/38
f 17/17/17 39/39/39 16/16/16
f 17/17/17 40/40/40 39/39/39
f 18/18/18 40/40/40 17/17/17
f 41/41/41 26/26/26 28/28/28
f 41/41/41 29/29/29 26/26/26
f 42/42/42 29/29/29 41/41/41
f 42/42/42 31/31/31 29/29/29
f 43/43/43 31/31/31 42/42/42
f 43/43/43 44/44/44 31/31/31
f 45/45/45 1/1/1 3/3/3
f 45/45/45 46/46/46 1/1/1
f 47/47/47 46/46/46 45/45/45
f 47/47/47 11/11/11 46/46/46
f 13/13/13 11/11/11 47/47/47
f 48/48/48 49/49/49 50/50/50
f 48/48/48 51/51/51 49/49/49
f 52/52/52 51/51/51 48/48/48
f 52/52/52 53/53/53 51/51/51
f 54/54/54 55/55/55 56/56/56
f 54/54/54 57/57/57 55/55/55
f 58/58/58 57/57/57 54/54/54
f 58/58/58 59/59/59 57/57/57
f 60/60/60 61/61/61 62/62/62
f 60/60/60 63/63/63 61/61/61
f 64/64/64 63/63/63 60/60/60
f 64/64/64 65/65/65 63/63/63
f 66/66/66 67/67/67 68/68/68
f 66/66/66 69/69/69 67/67/67
f 70/70/70 69/69/69 66/66/66
f 70/70/70 71/71/71 69/69/69
f 72/72/72 73/73/73 74/74/74
f 72/72/72 50/50/50 73/73/73
f 75/75/75 50/50/50 72/72/72
f 75/75/75 48/48/48 50/50/50
f 76/76/76 77/77/77 78/78/78
f 76/76/76 79/79/79 77/77/77
f 80/80/80 79/79/79 76/76/76
f 80/80/80 81/81/81 79/79/79
f 20/20/20 82/82/82 83/83/83
f 20/20/20 84/84/84 82/82/82
f 22/22/22 84/84/84 20/20/20
f 22/22/22 24/24/24 84/84/84
f 30/30/30 84/84/84 24/24/24
f 30/30/30 82/82/82 84/84/84
f 32/32/32 82/82/82 30/30/30
f 32/32/32 34/34/34 82/82/82
f 85/85/85 86/86/86 87/87/87
f 85/85/85 88/88/88 86/86/86
f 89/89/89 88/88/88 85/85/85
f 90/90/90 91/91/91 92/92/92
f 90/90/90 93/93/93 91/91/91
f 94/94/94 93/93/93 90/90/90
f 46/46/46 5/5/5 1/1/1
f 46/46/46 9/9/9 5/5/5
f 11/11/11 9/9/9 46/46/46
f 95/95/95 96/96/96 97/97/97
f 95/95/95 98/98/98 96/96/96
f 99/99/99 100/100/100 101/101/101
f 99/99/99 102/102/102 100/100/100
f 103/103/103 104/104/104 105/105/105
f 103/103/103 106/106/106 104/104/104
f 106/106/106 107/107/107 104/104/104
f 106/106/106 108/108/108 107/107/107
f 109/109/109 110/110/110 111/111/111
f 109/109/109 112/112/112 110/110/110
f 113/113/113 53/53/53 114/114/114
f 113/113/113 51/51/51 53/53/53
f 115/115/115 42/42/42 41/41/41
f 115/115/115 116/116/116 42/42/42
f 33/33/33 44/44/44 35/35/35
f 33/33/33 31/31/31 44/44/44
f 117/117/117 118/118/118 119/119/119
f 117/117/117 120/120/120 118/118/118
f 121/121/121 118/118/118 120/120/120
f 121/121/121 122/122/122 118/118/118
f 123/123/123 124/124/124 125/125/125
f 123/123/123 126/126/126 124/124/124
f 127/127/127 110/110/110 112/112/112
f 127/127/127 128/128/128 110/110/110
f 126/126/126 129/129/129 124/124/124
f 126/126/126 130/130/130 129/129/129
f 131/131/131 101/101/101 132/132/132
f 131/131/131 99/99/99 101/101/101
f 133/133/133 97/97/97 134/134/134
f 133/133/133 95/95/95 97/97/97
f 135/135/135 94/94/94 90/90/90
f 89/89/89 85/85/85 136/136/136
f 43/43/43 42/42/42 116/116/116
f 5/5/5 9/9/9 7/7/7
f 83/83/83 82/82/82 34/34/34

v 0.004395 -5.473389 0.000000
v 0.004395 -5.048096 2.537109
v -2.532959 -5.048096 0.000000
v 2.541504 -5.048096 0.000000
v 0.004395 -5.048096 -2.537109

vt 0.500000 0.500000
vt 1.028259 0.500671
vt 0.500671 -0.028259
vt 0.499329 1.028259
vt 1.028259 0.500671

vn 7924809334889683200000000000000000.000000 7840161470883427500000000000000000.000000 -1.#QNAN0
vn 7924809334889683200000000000000000.000000 7840161470883427500000000000000000.000000 -1.#QNAN0
vn 7924809334889683200000000000000000.000000 7840161470883427500000000000000000.000000 -1.#QNAN0
vn 7900660838543343300000000000000000.000000 0.000000 0.000000
vn 7900660838543343300000000000000000.000000 0.000000 0.000000

g polygon1
s 1
usemtl mat2
f 137/137/137 138/138/138 139/139/139
f 137/137/137 140/140/140 138/138/138
f 141/141/141 140/140/140 137/137/137
f 139/139/139 141/141/141 137/137/137

v -4.459473 -3.057129 3.283691
v -3.300049 -3.057129 4.430664
v -5.616211 -3.057129 5.613037
v 3.308838 -3.057129 4.430664
v 4.468262 -3.057129 3.283691
v 5.625000 -3.057129 5.613037
v -3.300049 -3.057129 -4.430664
v -4.459473 -3.057129 -3.283691
v -5.616211 -3.057129 -5.613037
v 4.468262 -3.057129 -3.283691
v 3.308838 -3.057129 -4.430664
v 5.625000 -3.057129 -5.613037

vt 0.593964 0.686066
vt 0.535339 0.685303
vt 0.562927 0.780121
vt 0.535339 0.685303
vt 0.593964 0.686066
vt 0.562927 0.780121
vt 0.535339 0.685303
vt 0.593964 0.686066
vt 0.562927 0.780121
vt 0.593964 0.686066
vt 0.535339 0.685303
vt 0.562927 0.780121

vn 7924809334889683200000000000000000.000000 7840161470883427500000000000000000.000000 -1.#QNAN0
vn 7924809334889683200000000000000000.000000 7840161470883427500000000000000000.000000 -1.#QNAN0
vn 7924809334889683200000000000000000.000000 7840161470883427500000000000000000.000000 -1.#QNAN0
vn 7900660838543343300000000000000000.000000 0.000000 0.000000
vn 7900660838543343300000000000000000.000000 0.000000 0.000000
vn 7900660838543343300000000000000000.000000 0.000000 0.000000
vn 7900660838543343300000000000000000.000000 0.000000 0.000000
vn 7900660838543343300000000000000000.000000 0.000000 0.000000
vn 7900660838543343300000000000000000.000000 0.000000 0.000000
vn 7900660838543343300000000000000000.000000 0.000000 0.000000
vn 7900660838543343300000000000000000.000000 0.000000 0.000000
vn 7900660838543343300000000000000000.000000 0.000000 0.000000

g polygon2
s 1
usemtl mat1
f 142/142/142 143/143/143 144/144/144
f 145/145/145 146/146/146 147/147/147
f 148/148/148 149/149/149 150/150/150
f 151/151/151 152/152/152 153/153/153

